<?xml version="1.0" encoding="utf-8"?>
<!-- Generator: Adobe Illustrator 22.1.0, SVG Export Plug-In . SVG Version: 6.00 Build 0)  -->
<svg version="1.1" xmlns="http://www.w3.org/2000/svg" xmlns:xlink="http://www.w3.org/1999/xlink" x="0px" y="0px"
	 viewBox="0 0 2100 2100" style="enable-background:new 0 0 2100 2100;" xml:space="preserve">
<style type="text/css">
	.st0{fill:#FFFFFF;}
	.st1{fill:#EBF2FF;}
	.st2{fill:#E0EAFF;}
	.st3{fill:#B5CAF4;}
	.st4{opacity:0.5;fill:url(#SVGID_1_);}
	.st5{fill:url(#SVGID_2_);}
	.st6{fill:#C7D9F8;}
	.st7{fill:url(#SVGID_3_);}
	.st8{fill:url(#SVGID_4_);}
	.st9{fill:url(#SVGID_5_);}
	.st10{fill:url(#SVGID_6_);}
	.st11{fill:url(#SVGID_7_);}
	.st12{fill:#A7C1FF;}
	.st13{fill:#95BAEF;}
	.st14{opacity:0;fill:#FFFFFF;}
	.st15{opacity:5.555556e-02;fill:#FCFDFF;}
	.st16{opacity:0.1111;fill:#F9FBFE;}
	.st17{opacity:0.1667;fill:#F6F9FE;}
	.st18{opacity:0.2222;fill:#F3F7FD;}
	.st19{opacity:0.2778;fill:#EFF4FD;}
	.st20{opacity:0.3333;fill:#ECF2FD;}
	.st21{opacity:0.3889;fill:#E9F0FC;}
	.st22{opacity:0.4444;fill:#E6EEFC;}
	.st23{opacity:0.5;fill:#E3ECFC;}
	.st24{opacity:0.5556;fill:#E0EAFB;}
	.st25{opacity:0.6111;fill:#DDE8FB;}
	.st26{opacity:0.6667;fill:#DAE6FA;}
	.st27{opacity:0.7222;fill:#D7E4FA;}
	.st28{opacity:0.7778;fill:#D3E1FA;}
	.st29{opacity:0.8333;fill:#D0DFF9;}
	.st30{opacity:0.8889;fill:#CDDDF9;}
	.st31{opacity:0.9444;fill:#CADBF8;}
	.st32{fill:#2C49A2;}
	.st33{fill:#1A317A;}
	.st34{opacity:0.8;}
	.st35{fill:#628CD2;}
	.st36{opacity:0.55;}
	.st37{opacity:0.75;}
	.st38{opacity:0.85;fill:#E0EAFF;}
	.st39{fill:url(#SVGID_8_);}
	.st40{fill:#EF9607;}
	.st41{fill:#FFAC31;}
	.st42{opacity:0.5;fill:#2C49A2;}
	.st43{fill:#FA8B17;}
	.st44{fill:#0E2939;}
	.st45{fill:#FAC4B6;}
	.st46{fill:#F5B3A6;}
	.st47{fill:url(#SVGID_9_);}
	.st48{fill:url(#SVGID_10_);}
	.st49{fill:url(#SVGID_11_);}
	.st50{fill:url(#SVGID_12_);}
	.st51{fill:url(#SVGID_13_);}
	.st52{opacity:0.55;fill:#FF5F18;}
</style>
<g id="Layer_1">
	<rect y="-0.5" class="st0" width="2100" height="2100"/>
	<g>
		<g>
			<path class="st1" d="M740.8,1585.5c-181.4-11.8-557.7,34.9-576.3-459.4C153.1,823,534.7,664,623.7,616.1
				c89-47.9,214.1-263.7,532-206c283,51.4,324.4,235.5,397.8,543.7c44.5,186.9,302.1,207.1,283.4,411.4
				C1819.5,1555.2,1518.2,1636.1,740.8,1585.5z"/>
		</g>
	</g>
	<g>
		<path class="st2" d="M1792,1066c0,0,137.4,36.6,183-99.5c45.6-136.1-15.2-202.3-15.2-202.3S1692.6,844.1,1792,1066z"/>
		<path class="st3" d="M429.8,961.9c0,0,81.1-103.5-18-191.8c-99.1-88.3-177.5-60.8-177.5-60.8S204.9,965.7,429.8,961.9z"/>
		<linearGradient id="SVGID_1_" gradientUnits="userSpaceOnUse" x1="333.3894" y1="961.923" x2="333.3894" y2="708.0732">
			<stop  offset="2.400000e-07" style="stop-color:#628CD2"/>
			<stop  offset="0.4845" style="stop-color:#648DD3;stop-opacity:0.5155"/>
			<stop  offset="0.6591" style="stop-color:#6B93D8;stop-opacity:0.3409"/>
			<stop  offset="0.7835" style="stop-color:#769CDF;stop-opacity:0.2165"/>
			<stop  offset="0.884" style="stop-color:#87A9EA;stop-opacity:0.116"/>
			<stop  offset="0.9692" style="stop-color:#9DB9F9;stop-opacity:3.080451e-02"/>
			<stop  offset="1" style="stop-color:#A7C1FF;stop-opacity:0"/>
		</linearGradient>
		<path class="st4" d="M329.4,848.6c-64.9-69.6-84.7-119.8-90.5-140.5c-3,0.7-4.6,1.2-4.6,1.2s-0.3,2.3-0.6,6.5
			c7.8,24.2,29.6,72.2,90.5,137.5c53.7,57.6,86.2,91.2,103.4,108.6c0.7,0,1.4,0,2.2,0c0,0,1.2-1.6,3.2-4.5
			C416,940.2,383.4,906.5,329.4,848.6z"/>
		<path class="st3" d="M1856,934.8c5.6,1.1,12.7-10.9,15.8-26.8c0.4-2,0.7-3.9,0.9-5.7c15.4-2.3,29.6-5.7,40.1-11.6
			c0,0,7.5,27.7,20,51.9c-21.9,20-72.2,68.5-56.2,79c13.9,9.1,55.2-23.4,79.8-44.8c6.7,9.2,12.9,20.2,17,35.3
			c-11.1,10.3-33.6,30.4-47.7,36.5c-19.1,8.4-50.8,17.8-50.8,17.8s-10,15.7,40.9,2.2c25.7-6.8,46.6-23.2,61-37.8
			c2.6,22.7,0.9,52.8-8.5,95c-0.7,3-1.4,5.9-2.2,8.7c-13,10.6-30.2,21-47.5,20.8c-34.3-0.4-63-17.2-63-17.2s-24.3,0.4-6.6,14.7
			c16.6,13.4,47.2,40.9,108.2,5.4c-34.4,70-112.6,52.5-136.1,43c-26.6-10.8-16.7-54.7-34.8-67.7c-18-13-43.8,26.6-77.4,16.2
			c-33.6-10.4-51.9-63.3-28.9-121.9c18-45.8,51.8-80.9,79.4-100.6c1,39.6,22.5,94.3,25.7,100.4c4.3,8,14.1,4.5,17.3-1.8
			c3.2-6.2-5.9-21.8-6.2-61.8c-0.2-20.6,10.8-41.3,21.4-56.6c10.5-0.9,22.1-1.7,33.6-2.8C1848.4,920.3,1850.4,933.8,1856,934.8z"/>
		<g>
			<path class="st3" d="M695.7,852.1c0,0,70.3-66.3,8-141.4c-62.3-75.1-122.4-63.6-122.4-63.6S531.8,830.2,695.7,852.1z"/>
			
				<linearGradient id="SVGID_2_" gradientUnits="userSpaceOnUse" x1="1738.7371" y1="1081.5236" x2="1872.5426" y2="1081.5236" gradientTransform="matrix(-0.9727 -0.2322 -0.2322 0.9727 2674.6882 164.5536)">
				<stop  offset="1.600000e-07" style="stop-color:#628CD2"/>
				<stop  offset="0.9974" style="stop-color:#A7C1FF;stop-opacity:0"/>
			</linearGradient>
			<path class="st5" d="M708.7,899.6c0.2,0.1,0.5,0.1,0.7,0.1c1.5,0,2.8-1.3,2.7-2.9c-1.8-70.6-81.3-195.4-84.7-200.7
				c-0.8-1.3-2.6-1.7-3.9-0.8c-1.3,0.8-1.7,2.6-0.8,3.9c0.8,1.3,82.1,128.8,83.8,197.8C706.6,898.3,707.5,899.3,708.7,899.6z"/>
		</g>
		<g>
			<path class="st3" d="M1618.7,1366.9c-0.1,0.4-0.1,0.9,0,1.3c0.3,2.8,2.8,4.8,5.6,4.4c127.3-14.6,340-178.6,348.9-185.6
				c2.2-1.7,2.6-4.9,0.9-7.1c-1.7-2.2-4.9-2.6-7.1-0.9c-2.2,1.7-219.4,169.2-343.9,183.6C1620.8,1362.9,1619,1364.7,1618.7,1366.9z"
				/>
			<g>
				<path class="st2" d="M1684.6,1340.8c0,0,131.3,116.3,256.8-8.5c125.6-124.8,95.1-231.5,95.1-231.5S1697.7,1041.1,1684.6,1340.8z
					"/>
			</g>
		</g>
		<g>
			<path class="st6" d="M574.2,1090.9c0,0,35.2-139.1-102.7-183.4c-137.9-44.4-204,17.8-204,17.8S351.5,1194.1,574.2,1090.9z"/>
			<linearGradient id="SVGID_3_" gradientUnits="userSpaceOnUse" x1="494.8237" y1="1140.3331" x2="494.8237" y2="949.6521">
				<stop  offset="2.400000e-07" style="stop-color:#628CD2"/>
				<stop  offset="1" style="stop-color:#A7C1FF;stop-opacity:0"/>
			</linearGradient>
			<path class="st7" d="M628.3,1140.1c0.3-0.1,0.7-0.3,1-0.5c1.9-1.3,2.4-3.8,1.1-5.7c-58.5-87-257.6-179.9-266-183.9
				c-2.1-1-4.5-0.1-5.5,2c-1,2.1-0.1,4.5,2,5.5c2,0.9,205.4,95.9,262.6,181C624.6,1140.1,626.6,1140.7,628.3,1140.1z"/>
		</g>
		<g>
			<path class="st6" d="M667.8,1229.8c0,0-63.4-189.3-258.3-137.6c-194.8,51.8-225.4,174.3-225.4,174.3S484.5,1518.1,667.8,1229.8z"
				/>
			
				<linearGradient id="SVGID_4_" gradientUnits="userSpaceOnUse" x1="537.3879" y1="1245.4043" x2="537.3879" y2="1141.443" gradientTransform="matrix(0.9847 -0.1744 0.1744 0.9847 -197.0031 154.2493)">
				<stop  offset="0" style="stop-color:#628CD2"/>
				<stop  offset="0.4845" style="stop-color:#648DD3;stop-opacity:0.5155"/>
				<stop  offset="0.6591" style="stop-color:#6B93D8;stop-opacity:0.3409"/>
				<stop  offset="0.7835" style="stop-color:#769CDF;stop-opacity:0.2165"/>
				<stop  offset="0.884" style="stop-color:#87A9EA;stop-opacity:0.116"/>
				<stop  offset="0.9692" style="stop-color:#9DB9F9;stop-opacity:3.080451e-02"/>
				<stop  offset="1" style="stop-color:#A7C1FF;stop-opacity:0"/>
			</linearGradient>
			<path class="st8" d="M768.2,1246.6c0.3-0.4,0.6-0.8,0.8-1.3c1.3-2.9-0.1-6.3-3-7.6c-133.9-57.9-437-17-449.8-15.2
				c-3.1,0.4-5.4,3.3-4.9,6.5c0.4,3.2,3.3,5.4,6.5,4.9c3.1-0.4,312.7-42.3,443.7,14.3C763.8,1249.4,766.6,1248.6,768.2,1246.6z"/>
		</g>
		<g>
			<path class="st6" d="M697.8,1036.7c0,0,38.7-99.2-36.2-204.5c-74.9-105.3-126.1-127.7-133.4-133.1c-7.3-5.4-41.8-73.7-88.6-89.1
				c-46.8-15.5-156.3-99.2-196.8-46.3c-40.5,52.9,16.3,118.8,35.8,146.1c19.4,27.3,42.6,36.7,63.5,67c21,30.3,77.2,2,99.9,42.9
				c22.6,40.9-29.2,81,156.5,211.8C646.7,1065.6,692.6,1055.3,697.8,1036.7z"/>
			<g>
				<path class="st2" d="M228.7,600.2c-0.2,3.4-0.3,6.7,0,10.1c17.4-5.7,33.3-12.4,33-18C261.4,586.8,245.7,592.4,228.7,600.2z"/>
				<path class="st2" d="M316,621.1c-7.7-2.4-47.7,10.9-79.2,22.2c3.3,8.1,7.4,15.9,11.7,23.3C281.9,651.2,325.1,623.9,316,621.1z"
					/>
				<path class="st2" d="M340.2,643.8c-1-2.1-43.7,31.7-70.9,53.5c3.5,4.8,6.7,9,9.3,12.6c2.2,3.2,4.6,6.1,6.9,8.8
					C309.6,693.9,341.1,645.9,340.2,643.8z"/>
				<path class="st2" d="M368.3,653.4c-9.5-8.2-42.8,45.6-68.3,80.2c6.5,6,13.1,11.5,19.8,17.8C343.1,717,375.1,659.4,368.3,653.4z"
					/>
				<path class="st2" d="M334.9,767.5c2.3,2.8,4.6,5.9,6.9,9.2c30.6-26.5,73.6-85.3,67.7-84.6C404.6,692.6,358.4,739.1,334.9,767.5z
					"/>
				<path class="st2" d="M425.3,802.9c1.6,0.9,3.2,2,4.7,3.1c18.3-22.8,53.8-69.9,40.2-76.9C456.9,722.2,435.3,775.6,425.3,802.9z"
					/>
				<path class="st2" d="M400.8,795.5c1.1,0.1,2.1,0.3,3.2,0.5c11.2-17.9,40-66.3,29.5-73.7C422.4,714.5,405.1,773.9,400.8,795.5z"
					/>
				<path class="st2" d="M448.1,838.4c1.3,7.4,1.7,15.3,3,24c37.8-22.2,96.6-58.8,90.7-69.8C535.8,781.4,480.8,816.3,448.1,838.4z"
					/>
				<path class="st2" d="M461.9,898.5c2.9,5.9,6.4,12.2,11,18.9c30-29,86.3-84.8,83.6-92.7C553.8,816.9,495.4,868.2,461.9,898.5z"/>
				<path class="st2" d="M507.8,958.3c8.9,8.8,19.3,18.1,31.3,28.2c17.7-32.1,51.6-97.1,41.4-109.2
					C569.7,864.5,529.3,920.4,507.8,958.3z"/>
				<path class="st2" d="M613.2,1040.7c12.6,6.7,24.8,10.7,35.9,12.3c-6.3-44.1-17.8-106.1-32.3-109.9
					C599.7,938.7,608,1006.7,613.2,1040.7z"/>
				<path class="st2" d="M633.7,858.9c2.2,24.8,43.6,47.3,67.4,58.2c-2.7-11.1-6.5-22.7-11.4-34.6
					C661.1,859.5,632,839.9,633.7,858.9z"/>
				<path class="st2" d="M631.6,792.7c-2.8-3.5-5.6-6.9-8.4-10.1c-43.5-9.1-50.2-14.2-46.4-3.5C579.6,787,606.6,787.2,631.6,792.7z"
					/>
				<path class="st2" d="M555.6,717.1c-24.2-1.2-46.1-1.1-35.8,3.8c15.7,7.5,33.8,8.4,49.4,7C564.3,723.8,559.8,720.2,555.6,717.1z"
					/>
				<path class="st2" d="M516,682.5c-26.3-1.4-52.4-1.8-41.3,3.5c15.4,7.3,33.2,8.3,48.5,7.1C521.2,690.2,518.8,686.6,516,682.5z"/>
				<path class="st2" d="M468.6,626.7c-9.4,6.1-18.2,14.1-13.4,20.2c5.3,6.7,15.8-2.4,23.6-11.1
					C475.4,632.6,472.1,629.6,468.6,626.7z"/>
				<path class="st2" d="M432.2,607.2c-6.7-2.7-14.2-6.4-22.4-10.6c-5.2,11.1-8.9,25.6-0.4,29.3
					C417.5,629.5,426.3,617.7,432.2,607.2z"/>
				<path class="st2" d="M321.7,554.7c-6.4-2.2-12.7-4.1-18.9-5.5c5.4,15.4,12.1,29.6,15.7,30.9
					C322.8,581.6,323.9,569.6,321.7,554.7z"/>
				<path class="st2" d="M376.8,608c4.2-3.1-3.7-19.6-12.1-34.7c-3.7-1.9-7.5-3.7-11.2-5.5C360.4,594.5,370.3,612.7,376.8,608z"/>
			</g>
		</g>
		<linearGradient id="SVGID_5_" gradientUnits="userSpaceOnUse" x1="604.0397" y1="1179.0227" x2="604.0397" y2="662.1391">
			<stop  offset="0" style="stop-color:#628CD2"/>
			<stop  offset="1" style="stop-color:#A7C1FF;stop-opacity:0"/>
		</linearGradient>
		<path class="st9" d="M819.6,1178.6c-0.2,0.1-0.4,0.2-0.6,0.2c-2.2,0.6-4.5-0.7-5.2-2.9c-59.2-214.6-171.7-340.6-255.6-408.6
			c-90.8-73.6-168.3-96.7-169.1-96.9c-2.2-0.6-3.5-3-2.9-5.2c0.6-2.2,3-3.5,5.2-2.9c0.8,0.2,80,23.9,172.1,98.5
			c84.9,68.8,198.6,196.2,258.4,412.9C822.4,1175.7,821.4,1177.8,819.6,1178.6z"/>
		<path class="st3" d="M1911.1,1287.8c-0.6-3.4,6.9-7.5,16.6-9.1c1.2-0.2,2.4-0.3,3.5-0.4c1.7-9.3,4-17.9,7.8-24
			c0,0-16.6-5.1-31.1-13.1c-12.5,12.9-42.9,42.4-49,32.5c-5.3-8.6,15.3-33,28.7-47.5c-5.4-4.2-12-8.2-21-11
			c-6.5,6.5-19.1,19.8-23,28.2c-5.4,11.4-11.8,30.4-11.8,30.4s-9.7,5.8-0.6-24.9c4.6-15.4,14.9-27.8,24-36.2
			c-13.7-2-32-1.6-57.7,3.3c-1.8,0.4-3.6,0.8-5.3,1.2c-6.7,7.7-13.3,17.9-13.5,28.4c-0.4,20.8,9.2,38.5,9.2,38.5s-0.7,14.7-9,3.7
			c-7.8-10.3-23.9-29.4-1.2-65.7c-43,19.5-34,67.2-28.6,81.6c6,16.3,32.8,11.2,40.4,22.4c7.5,11.2-17,26-11.3,46.6
			c5.7,20.5,37.4,32.7,73.3,19.9c28.1-10,50-29.8,62.5-46.2c-24-1.3-56.7-15.4-60.3-17.5c-4.8-2.8-2.4-8.6,1.4-10.4
			c3.8-1.8,13.1,4,37.3,5c12.5,0.5,25.3-5.7,34.7-11.9c0.8-6.4,1.5-13.4,2.3-20.3C1919.8,1292.6,1911.7,1291.1,1911.1,1287.8z"/>
		<g>
			<path class="st6" d="M930.3,448.6c0,0,45.2,182.7,15.7,196.2c-29.5,13.5-51.5-44.7-49.1-86.3
				C899.4,516.9,920.9,441.7,930.3,448.6z"/>
			
				<linearGradient id="SVGID_6_" gradientUnits="userSpaceOnUse" x1="1450.9271" y1="864.9973" x2="1548.2712" y2="864.9973" gradientTransform="matrix(0.5871 -0.5224 0.624 0.7012 -474.5311 787.0339)">
				<stop  offset="0" style="stop-color:#628CD2"/>
				<stop  offset="1" style="stop-color:#A7C1FF"/>
			</linearGradient>
			<path class="st10" d="M959.1,680.4c-0.1,0.1-0.2,0.2-0.3,0.2c-0.8,0.4-1.9-0.1-2.4-1c-23.3-41.7-24.5-134.6-24.6-138.6
				c0-1,0.8-1.6,1.7-1.5c1,0.2,1.7,1.1,1.8,2c0,1,1.3,95.9,24.1,136.7C959.7,679.1,959.6,679.9,959.1,680.4z"/>
			<path class="st3" d="M985.2,641.3c0,0-57.2-26.4-34.3-85.7c22.9-59.3,62.4-64.7,62.4-64.7S1081.9,593.8,985.2,641.3z"/>
			
				<linearGradient id="SVGID_7_" gradientUnits="userSpaceOnUse" x1="1341.3258" y1="575.2104" x2="1359.8395" y2="575.2104" gradientTransform="matrix(1 0 0 1 -358.5343 0)">
				<stop  offset="0" style="stop-color:#628CD2"/>
				<stop  offset="1" style="stop-color:#A7C1FF"/>
			</linearGradient>
			<path class="st11" d="M989.7,647.1c-0.1,0.1-0.3,0.1-0.4,0.2c-1,0.3-2-0.2-2.3-1.2c-13.6-44,9.7-137.6,10.7-141.6
				c0.2-1,1.2-1.6,2.2-1.3c1,0.2,1.6,1.2,1.3,2.2c-0.2,1-24,96.6-10.7,139.6C990.7,645.8,990.4,646.6,989.7,647.1z"/>
			<g>
				<g>
					<path class="st12" d="M790.7,492.2c16.2,0.5,29,14.7,29,14.7s-13.5,13.5-29.8,13c-16.2-0.5-29-14.7-29-14.7
						S774.4,491.8,790.7,492.2z"/>
					<path class="st12" d="M814.7,524.3c16.2,0.5,29,14.7,29,14.7s-13.5,13.5-29.8,13c-16.2-0.5-29-14.7-29-14.7
						S798.5,523.9,814.7,524.3z"/>
					<path class="st12" d="M829.4,557.6c15.8-3.9,31.9,6.3,31.9,6.3s-9.4,16.6-25.2,20.5c-15.8,3.9-31.9-6.3-31.9-6.3
						S813.6,561.5,829.4,557.6z"/>
					<path class="st12" d="M853.4,591.4c12.7-3.1,25.6,5.1,25.6,5.1s-7.6,13.3-20.2,16.5c-12.7,3.1-25.6-5.1-25.6-5.1
						S840.7,594.5,853.4,591.4z"/>
					<path class="st12" d="M872,625.2c12.7-3.1,25.6,5.1,25.6,5.1s-7.6,13.3-20.2,16.5c-12.7,3.1-25.6-5.1-25.6-5.1
						S859.3,628.3,872,625.2z"/>
				</g>
				<path class="st12" d="M829.1,462.8c0.1,16.2-13.6,29.5-13.6,29.5s-13.9-13.1-14-29.3c-0.1-16.2,13.6-29.5,13.6-29.5
					S829,446.6,829.1,462.8z"/>
				<path class="st12" d="M855.5,493.9c-4.2,15.7-21,24.8-21,24.8s-9.9-16.3-5.7-32c4.2-15.7,21-24.8,21-24.8
					S859.7,478.2,855.5,493.9z"/>
				<path class="st12" d="M880.9,527.9c-4.2,15.7-21,24.8-21,24.8s-9.9-16.3-5.7-32c4.2-15.7,21-24.8,21-24.8
					S885.1,512.2,880.9,527.9z"/>
				<path class="st12" d="M904.3,566.1c-9.3,13.3-28.2,16.2-28.2,16.2s-3.8-18.7,5.5-32c9.3-13.3,28.2-16.2,28.2-16.2
					S913.6,552.8,904.3,566.1z"/>
				<path class="st12" d="M922.5,603c-11.5,11.4-30.6,10.9-30.6,10.9s-0.4-19.1,11.2-30.5c11.5-11.4,30.6-10.9,30.6-10.9
					S934,591.6,922.5,603z"/>
				<path class="st12" d="M910.3,676.9c-0.5,0.4-1.2,0.5-1.9,0.3c-1.7-0.3-3-2-3.1-3.8c0-0.5-1.2-36.3-40.7-99.1
					c-40.1-63.6-75.1-98.3-75.5-98.6c-1.4-1.3-1.7-3.4-0.7-4.6c1-1.2,2.8-1.1,4.2,0.2c0.4,0.3,36.1,35.6,76.7,100.2
					c41,65.1,41.9,101.6,42,103.2C911.4,675.6,911,676.4,910.3,676.9z"/>
				<path class="st12" d="M782.7,445.1c11.1,11.8,10.1,30.9,10.1,30.9s-19.1-0.1-30.2-11.9c-11.1-11.8-10.1-30.9-10.1-30.9
					S771.6,433.3,782.7,445.1z"/>
			</g>
		</g>
		<g>
			<path class="st13" d="M731.2,1275.9c-2,0.8-4.3,0-5.3-2c-83.2-161.2-184.9-206-255.6-215.2c-71-9.2-135.1,15.8-161.8,45.4
				c-1.6,1.7-4.2,1.9-6,0.3c-1.7-1.6-1.9-4.2-0.3-6c27.3-30.2,91.8-58.1,169.1-48.1c72.7,9.4,177.1,55.2,262,219.7
				c1.1,2.1,0.3,4.6-1.8,5.7C731.5,1275.8,731.4,1275.9,731.2,1275.9z"/>
			<g>
				<path class="st13" d="M205.8,1193.5c0,0,90.8-114,111.9-106.5C339.5,1094.7,205.8,1193.5,205.8,1193.5z"/>
				<path class="st13" d="M182,1124.3c0,0,144.4-49.6,143.4-42.6C324.5,1088.8,248.4,1112.3,182,1124.3z"/>
				<path class="st13" d="M197.3,1067.6c0,0,38.7,11.8,84.9,10.1c46.2-1.7,66.1-5,66.1-5s-38.5-11.3-67.9-10.9
					C251.1,1062.1,197.3,1067.6,197.3,1067.6z"/>
				<path class="st13" d="M220.1,1018.4c0,0,57.7,23.9,83.5,29.6c25.8,5.6,65,16.6,65,16.6s-38.2-20.3-61.1-28.3
					C284.5,1028.3,220.1,1018.4,220.1,1018.4z"/>
				<path class="st13" d="M249.9,975.6c0,0,42.1,35.4,68,49.3c25.9,13.9,65.5,27.8,65.5,27.8s-35.6-30.5-57-42.5
					C305.1,998.2,249.9,975.6,249.9,975.6z"/>
				<path class="st13" d="M286.4,947.4c0,0,46.8,54.9,67.4,70.5s54,31.2,54,31.2s-18-26.2-43.3-44.2
					C339.2,986.9,286.4,947.4,286.4,947.4z"/>
				<path class="st13" d="M326.9,931.3c0,0,25.5,45.2,55.6,75.1c30.1,29.9,49.7,43.3,49.7,43.3s-27.1-41.4-48.4-60.9
					C362.4,969.4,326.9,931.3,326.9,931.3z"/>
				<path class="st13" d="M368.5,923.8c0,0,11.8,35.4,48.8,78.9c37,43.5,44.3,46.7,44.3,46.7s-25.1-53.6-37.7-66.3
					C411.2,970.4,368.5,923.8,368.5,923.8z"/>
				<path class="st13" d="M409.1,917.5c0,0,14.5,51.7,34.7,77.7c20.2,26,44.6,60.9,44.6,60.9s-17.4-47.5-32.5-72.2
					C440.9,959.3,409.1,917.5,409.1,917.5z"/>
				<path class="st13" d="M453.2,910.6c0,0-0.5,42.5,22.9,86.2c23.4,43.6,30.8,64.9,30.8,64.9s-12.3-52.6-18.8-72.7
					C481.7,968.8,453.2,910.6,453.2,910.6z"/>
				<path class="st13" d="M491.3,918.8c0,0,2.4,45.9,12.6,77.4c10.3,31.5,27,67.9,27,67.9s-1.2-37.3-9.5-69.6
					C513.2,962.3,491.3,918.8,491.3,918.8z"/>
				<path class="st13" d="M528.9,925.9c0,0-8.2,32.7,5.2,83.3c13.3,50.7,20.4,72.1,20.4,72.1s-1.7-50-6.6-77.5
					C542.9,976.2,528.9,925.9,528.9,925.9z"/>
				<path class="st13" d="M569.6,938.8c0,0-10.5,32.5-5.2,66.7c5.3,34.2,13.8,89.8,13.8,89.8s4.9-52.3,2.6-81
					C578.4,985.6,569.6,938.8,569.6,938.8z"/>
				<path class="st13" d="M600.6,957.8c0,0-8.6,16.3-7.2,69.4c1.5,53.1,9,83.4,9,83.4s3.9-49.2,6.9-79.5
					C612.4,1000.8,600.6,957.8,600.6,957.8z"/>
				<path class="st13" d="M638.5,979c0,0-9.4,10.6-12.6,59.5c-3.2,48.9-2.1,95.4-2.1,95.4s8-46.3,12.9-85.3
					C641.6,1009.6,638.5,979,638.5,979z"/>
				<path class="st13" d="M668.2,1015.6c0,0-16.5,8.1-19.3,56.1c-2.8,48-8.5,81.3-8.5,81.3s21.2-56.9,23.5-79.7
					C666.2,1050.5,668.2,1015.6,668.2,1015.6z"/>
				<path class="st13" d="M696.4,1040.7c0,0-20.8,29.5-30.3,62.7c-9.5,33.3-10.7,66.3-10.7,66.3s24.2-43.7,31.6-68.9
					C694.4,1075.6,696.4,1040.7,696.4,1040.7z"/>
				<path class="st13" d="M670,1191.2c0,0,0-22.7,15.1-62.7c15.1-40,32.3-49.9,32.3-49.9s-7.9,25.8-21.6,61.6
					C682,1175.8,670,1191.2,670,1191.2z"/>
				<path class="st13" d="M684.7,1218.6c0,0,4.8-45,23.2-65.2c18.4-20.2,28.9-35.7,28.9-35.7s-14.8,44.5-22.4,52
					S684.7,1218.6,684.7,1218.6z"/>
				<path class="st13" d="M328.2,1088.5c0,0-12.6,56-21.2,76.1c-8.7,20.1-35.6,72-35.6,72s17.4-57.2,25.6-81.3
					C305.1,1131.3,328.2,1088.5,328.2,1088.5z"/>
				<path class="st13" d="M348.3,1072.7c0,0-17.5,64.3-21.6,78.8c-4.1,14.5-12.4,56.4-9,66.7c3.4,10.4,22.9-57.9,25.9-69.7
					C346.6,1136.8,348.3,1072.7,348.3,1072.7z"/>
				<path class="st13" d="M365.3,1065.9c0,0-7.4,23.2-8.7,67.6c-1.3,44.4-0.9,85.1-0.9,85.1s17.5-70,15.8-87.7
					C369.7,1113.2,365.3,1065.9,365.3,1065.9z"/>
				<path class="st13" d="M394.3,1057c0,0-11.4,22.7-16.3,71.3c-4.9,48.6-0.1,85.2-0.1,85.2s17.5-79.6,16.2-96.8
					C393,1099.4,394.3,1057,394.3,1057z"/>
				<path class="st13" d="M426.3,1052.1c-7.9,14.5-21.1,47.7-22.7,62.7c-1.6,15-11.4,89.2-11.4,89.2s18.5-58,25.4-88.4
					C424.5,1085.4,426.3,1052.1,426.3,1052.1z"/>
				<path class="st13" d="M454.4,1052.3c0,0-17.3,32.6-28.3,77.1c-11,44.5-15.5,67.4-15.5,67.4s26.6-68,33.2-91.5
					C450.3,1081.9,454.4,1052.3,454.4,1052.3z"/>
				<path class="st13" d="M488.5,1056.1c0,0-22.5,23.3-36.4,60.6c-13.9,37.3-29.8,82.9-29.8,82.9s48-75.1,53.9-92.6
					C482.1,1089.7,488.5,1056.1,488.5,1056.1z"/>
				<path class="st13" d="M523.8,1067c0,0-25.3,16.1-43.8,49.6c-18.5,33.4-42.1,83.3-42.1,83.3s46.1-61.8,56.7-78.9
					C505.2,1103.9,523.8,1067,523.8,1067z"/>
				<path class="st13" d="M546.5,1079.2c0,0-29.2,15.4-50.6,48.9c-21.5,33.5-46.6,67.3-46.6,67.3s62.1-53.1,66.9-61.8
					C521.1,1124.8,546.5,1079.2,546.5,1079.2z"/>
				<path class="st13" d="M573.4,1096.6c0,0-38.5,24.9-52.1,42.1c-13.6,17.1-52.3,64.3-52.3,64.3s52.9-45.1,64.8-58.2
					C545.7,1131.7,573.4,1096.6,573.4,1096.6z"/>
				<path class="st13" d="M482.5,1210.5c0,0,43.2-52.7,66.7-68.9c23.5-16.2,47.3-28.7,47.3-28.7s-19.9,24.6-41.7,42.7
					C533,1173.8,482.5,1210.5,482.5,1210.5z"/>
				<path class="st13" d="M497.2,1213c0,0,51.1-45.3,69.6-56.4c18.5-11.1,49.2-25.2,49.2-25.2S572.4,1174,497.2,1213z"/>
				<path class="st13" d="M507.4,1218.8c0,0,50.7-33.3,92.7-55c42-21.7,37.1-9.5,37.1-9.5S573,1196.5,507.4,1218.8z"/>
				<path class="st13" d="M529.4,1219.9c0,0,34.6-20.2,59.9-33.1c25.4-12.9,63.2-12.8,63.2-12.8s-40.4,21.4-57.4,27.4
					C578.1,1207.3,529.4,1219.9,529.4,1219.9z"/>
				<path class="st13" d="M544.8,1230.4c0,0,26.8-15.2,62.5-24.9c35.7-9.7,65.7-6.5,65.7-6.5s-56.9,16.6-68.4,18.1
					C593.2,1218.7,544.8,1230.4,544.8,1230.4z"/>
				<path class="st13" d="M576.1,1242.1c0,0,28.4-18.1,50.7-24.7c22.3-6.6,53.6-0.3,53.6-0.3s-40.1,9.7-52.5,11.6
					C607.3,1231.9,576.1,1242.1,576.1,1242.1z"/>
			</g>
		</g>
		<g>
			<path class="st13" d="M1411.8,809.1c1.8,0.6,3.9-0.3,4.6-2.1c64.4-150.4,152.9-197.2,215.9-210.1c63.2-12.9,122.5,5.5,148.4,30.3
				c1.5,1.5,3.9,1.4,5.4-0.1c1.5-1.5,1.4-3.9-0.1-5.4c-26.5-25.4-86.4-46.3-155.2-32.3c-64.7,13.2-155.7,61.1-221.4,214.5
				c-0.8,1.9,0.1,4.2,2,5C1411.6,809,1411.7,809.1,1411.8,809.1z"/>
			<g>
				<path class="st13" d="M1879,701c0,0-89-96.7-107.5-88.6C1752.3,620.8,1879,701,1879,701z"/>
				<path class="st13" d="M1895.8,637.2c0,0-133.1-35.3-131.7-29C1765.4,614.6,1835.4,630.7,1895.8,637.2z"/>
				<path class="st13" d="M1878.5,587.2c0,0-34.1,13.1-75.7,14.6s-59.8-0.2-59.8-0.2s33.9-12.6,60.3-14.2
					C1829.7,585.7,1878.5,587.2,1878.5,587.2z"/>
				<path class="st13" d="M1854.7,544.5c0,0-50.3,25.3-73.2,32c-22.8,6.7-57.3,19.2-57.3,19.2s33.1-20.8,53.1-29.4
					C1797.5,557.6,1854.7,544.5,1854.7,544.5z"/>
				<path class="st13" d="M1825.2,507.8c0,0-35.6,34.6-58,48.8c-22.4,14.2-57.1,29.3-57.1,29.3s30-29.7,48.5-41.9
					C1777,531.8,1825.2,507.8,1825.2,507.8z"/>
				<path class="st13" d="M1790.6,484.9c0,0-38.5,52.4-56,67.7c-17.5,15.3-46.5,31.5-46.5,31.5s14.5-24.8,36.1-42.5
					C1745.6,523.9,1790.6,484.9,1790.6,484.9z"/>
				<path class="st13" d="M1753.1,473.1c0,0-20,42.3-45.1,71.2c-25.1,28.9-41.9,42.2-41.9,42.2s21.7-39,39.6-57.9
					C1723.6,509.6,1753.1,473.1,1753.1,473.1z"/>
				<path class="st13" d="M1715.2,469c0,0-8.3,32.6-38.8,74.1c-30.4,41.5-36.8,44.8-36.8,44.8s19.1-49.8,29.6-62.1
					C1679.8,513.6,1715.2,469,1715.2,469z"/>
				<path class="st13" d="M1678.2,466c0,0-9.7,47.4-26.2,72.1c-16.5,24.7-36.2,57.7-36.2,57.7s12.6-43.9,24.5-67
					C1652.4,505.6,1678.2,466,1678.2,466z"/>
				<path class="st13" d="M1638.1,462.6c0,0,3.2,38.2-15,79c-18.2,40.8-23.5,60.3-23.5,60.3s7.7-48.1,12.2-66.6
					C1616.3,516.8,1638.1,462.6,1638.1,462.6z"/>
				<path class="st13" d="M1604.4,472.5c0,0,0.8,41.5-6.4,70.4c-7.2,29-19.9,62.8-19.9,62.8s-1.3-33.6,4.1-63.2
					C1587.6,513,1604.4,472.5,1604.4,472.5z"/>
				<path class="st13" d="M1571,481.3c0,0,9.5,28.9,0.7,75.3s-13.6,66.1-13.6,66.1s-1.7-45.1,0.9-70.2
					C1561.7,527.4,1571,481.3,1571,481.3z"/>
				<path class="st13" d="M1535.3,495.5c0,0,11.6,28.6,9,59.7c-2.5,31.1-6.6,81.7-6.6,81.7s-7.8-46.7-7.6-72.7
					C1530.4,538.1,1535.3,495.5,1535.3,495.5z"/>
				<path class="st13" d="M1508.6,514.6c0,0,8.8,14.1,11,62c2.1,47.9-2.7,75.6-2.7,75.6s-6.7-44-11.4-71.1
					C1500.8,554,1508.6,514.6,1508.6,514.6z"/>
				<path class="st13" d="M1475.9,536.1c0,0,9.2,8.9,15.2,52.7c6.1,43.8,8.1,85.6,8.1,85.6s-10.2-41.1-17.2-75.9
					C1475.1,563.8,1475.9,536.1,1475.9,536.1z"/>
				<path class="st13" d="M1451.6,571c0,0,15.3,6.2,21,49.2c5.7,43,12.9,72.5,12.9,72.5s-22.8-49.8-26.3-70.1
					C1455.7,602.2,1451.6,571,1451.6,571z"/>
				<path class="st13" d="M1427.9,595.4c0,0,20.6,25.1,31.3,54.4c10.7,29.3,13.9,58.9,13.9,58.9s-24.6-37.7-32.9-59.9
					C1432,626.6,1427.9,595.4,1427.9,595.4z"/>
				<path class="st13" d="M1461.4,728.9c0,0-1.5-20.4-17.7-55.4c-16.2-35-32.3-42.8-32.3-42.8s8.8,22.7,23.5,54
					S1461.4,728.9,1461.4,728.9z"/>
				<path class="st13" d="M1449.9,754.6c0,0-7.2-40.2-25.1-57.1c-17.9-17-28.3-30.2-28.3-30.2s16.2,39,23.5,45.3
					C1427.3,718.8,1449.9,754.6,1449.9,754.6z"/>
				<path class="st13" d="M1762.1,614.5c0,0,14.9,49.6,24,67.1c9.1,17.5,36.7,62.5,36.7,62.5s-19.3-50.3-28.3-71.4
					S1762.1,614.5,1762.1,614.5z"/>
				<path class="st13" d="M1743,601.6c0,0,19.9,56.7,24.5,69.5c4.6,12.8,14.8,49.9,12.4,59.4c-2.4,9.6-24.4-50.6-27.8-61
					C1748.7,659.1,1743,601.6,1743,601.6z"/>
				<path class="st13" d="M1727.3,596.6c0,0,8.2,20.4,12.2,60.2c4,39.8,6.4,76.5,6.4,76.5s-20.3-61.8-19.9-77.9
					C1726.3,639.4,1727.3,596.6,1727.3,596.6z"/>
				<path class="st13" d="M1700.6,590.4c0,0,11.7,19.7,19.2,63.1c7.5,43.4,5.6,76.7,5.6,76.7s-20.8-70.4-20.9-86
					C1704.5,628.5,1700.6,590.4,1700.6,590.4z"/>
				<path class="st13" d="M1671.5,588.1c8,12.5,22.1,41.6,24.5,54.9c2.4,13.4,16,79.5,16,79.5s-20.4-51-28.5-77.8
					C1675.3,617.9,1671.5,588.1,1671.5,588.1z"/>
				<path class="st13" d="M1646.2,590.1c0,0,17.7,28.2,30.5,67.5c12.8,39.3,18.3,59.6,18.3,59.6s-28.3-59.5-35.8-80.1
					C1651.9,616.5,1646.2,590.1,1646.2,590.1z"/>
				<path class="st13" d="M1615.9,595.8c0,0,21.7,19.5,36.7,52.2c14.9,32.6,32.2,72.7,32.2,72.7s-48.1-64.4-54.5-79.7
					C1623.7,625.5,1615.9,595.8,1615.9,595.8z"/>
				<path class="st13" d="M1584.8,607.9c0,0,23.8,12.9,42.6,41.7c18.8,28.9,43.3,72.2,43.3,72.2s-45.5-52.6-56.1-67.3
					C1603.9,639.8,1584.8,607.9,1584.8,607.9z"/>
				<path class="st13" d="M1565.1,620.2c0,0,27.2,11.9,48.7,40.7c21.5,28.7,46.3,57.5,46.3,57.5s-59.3-43.7-64.2-51.2
					C1591,659.7,1565.1,620.2,1565.1,620.2z"/>
				<path class="st13" d="M1542.1,637.7c0,0,36.2,19.9,49.6,34.5c13.3,14.5,51.2,54.4,51.2,54.4s-50.5-37.1-62.1-48.2
					C1569.3,667.4,1542.1,637.7,1542.1,637.7z"/>
				<path class="st13" d="M1631.2,734.2c0,0-42.2-44.6-64.5-57.6c-22.2-13-44.4-22.7-44.4-22.7s19.5,20.8,40.3,35.7
					C1583.4,704.5,1631.2,734.2,1631.2,734.2z"/>
				<path class="st13" d="M1618.2,737.4c0,0-48.9-37.4-66.2-46.2c-17.4-8.8-45.9-19.5-45.9-19.5S1548,707.2,1618.2,737.4z"/>
				<path class="st13" d="M1609.4,743.3c0,0-47.8-26.7-87-43.5c-39.2-16.8-34-6.1-34-6.1S1549,727.4,1609.4,743.3z"/>
				<path class="st13" d="M1589.7,745.7c0,0-32.4-15.9-56-25.9c-23.6-10-57.7-7.5-57.7-7.5s37.7,16.6,53.4,20.9
					C1545.1,737.5,1589.7,745.7,1589.7,745.7z"/>
				<path class="st13" d="M1576.5,756.1c0,0-25.1-11.9-57.8-18.3c-32.8-6.4-59.5-1.6-59.5-1.6s52.3,11.2,62.7,11.9
					S1576.5,756.1,1576.5,756.1z"/>
				<path class="st13" d="M1549.1,768.7c0,0-26.7-14.4-47.2-18.9c-20.5-4.5-48.2,3.2-48.2,3.2s36.7,6.1,48,7
					C1520.4,761.5,1549.1,768.7,1549.1,768.7z"/>
			</g>
		</g>
	</g>
</g>
<g id="Layer_2">
	<g>
		<g>
			<ellipse class="st14" cx="1060" cy="1560.9" rx="788.4" ry="63.9"/>
			<ellipse class="st15" cx="1063" cy="1560.9" rx="751.5" ry="60.9"/>
			<ellipse class="st16" cx="1065.9" cy="1560.9" rx="714.6" ry="57.9"/>
			<ellipse class="st17" cx="1068.8" cy="1560.9" rx="677.7" ry="54.9"/>
			<ellipse class="st18" cx="1071.7" cy="1560.9" rx="640.8" ry="51.9"/>
			<ellipse class="st19" cx="1074.7" cy="1560.9" rx="603.9" ry="48.9"/>
			<ellipse class="st20" cx="1077.6" cy="1560.9" rx="567" ry="46"/>
			<ellipse class="st21" cx="1080.5" cy="1560.9" rx="530.1" ry="43"/>
			<ellipse class="st22" cx="1083.4" cy="1560.9" rx="493.2" ry="40"/>
			<ellipse class="st23" cx="1086.3" cy="1560.9" rx="456.3" ry="37"/>
			<ellipse class="st24" cx="1089.3" cy="1560.9" rx="419.4" ry="34"/>
			<ellipse class="st25" cx="1092.2" cy="1560.9" rx="382.5" ry="31"/>
			<ellipse class="st26" cx="1095.1" cy="1560.9" rx="345.6" ry="28"/>
			<ellipse class="st27" cx="1098" cy="1560.9" rx="308.7" ry="25"/>
			<ellipse class="st28" cx="1101" cy="1560.9" rx="271.8" ry="22"/>
			<ellipse class="st29" cx="1103.9" cy="1560.9" rx="234.9" ry="19"/>
			<ellipse class="st30" cx="1106.8" cy="1560.9" rx="198" ry="16"/>
			<ellipse class="st31" cx="1109.7" cy="1560.9" rx="161.1" ry="13.1"/>
			<ellipse class="st6" cx="1112.7" cy="1560.9" rx="124.1" ry="10.1"/>
		</g>
		<g>
			<g>
				<g>
					<path class="st32" d="M1625.3,1480.1H708.2c-41,0-71.7-20.7-68.6-46.2l94.6-778.3c3.1-25.5,38.8-46.2,79.8-46.2h917.2
						c41,0,71.7,20.7,68.6,46.2l-94.6,778.3C1702,1459.4,1666.3,1480.1,1625.3,1480.1z"/>
					<polygon class="st6" points="1657.9,1423 687,1423 778.9,667.4 1749.7,667.4 					"/>
					<g>
						<path class="st32" d="M1692.9,1519.4H286.5c-17.6,0-31.9-14.3-31.9-31.9v-65.9c0-7.1,5.7-12.8,12.8-12.8H1712
							c7.1,0,12.8,5.7,12.8,12.8v65.9C1724.8,1505.1,1710.5,1519.4,1692.9,1519.4z"/>
						<path class="st33" d="M1521.8,1459.2h-70.7c-2.3,0-4.1-1.8-4.1-4.1v-12c0-2.3,1.8-4.1,4.1-4.1h70.7c2.3,0,4.1,1.8,4.1,4.1v12
							C1525.8,1457.3,1524,1459.2,1521.8,1459.2z"/>
						<path class="st33" d="M1629.9,1459.2h-70.7c-2.3,0-4.1-1.8-4.1-4.1v-12c0-2.3,1.8-4.1,4.1-4.1h70.7c2.3,0,4.1,1.8,4.1,4.1v12
							C1633.9,1457.3,1632.1,1459.2,1629.9,1459.2z"/>
						<g class="st34">
							<path class="st35" d="M894.9,1440.4c0-17.4,10.2-31.6,22.8-31.6H277.4c-12.6,0-22.8,14.1-22.8,31.6c0,43.6,25.5,79,57,79
								h640.3C920.4,1519.4,894.9,1484,894.9,1440.4z"/>
							<g class="st36">
								<path class="st33" d="M916,1408.8c0,0,0,0.1,0,0.1c0.5-0.1,1.1-0.1,1.6-0.1H916z"/>
								<path class="st33" d="M903.6,1482.4h-571c-30.2,0-54.8-32.4-56.9-73.5c-11.8,1.2-21.2,14.8-21.2,31.5c0,43.6,25.5,79,57,79
									h640.3C931.5,1519.4,913.7,1504.6,903.6,1482.4z"/>
							</g>
							<g>
								<path class="st33" d="M335.4,1433.7h-47.6c-1.7,0-3-1.3-3-3v-10.1c0-1.7,1.3-3,3-3h47.6c1.7,0,3,1.3,3,3v10.1
									C338.4,1432.4,337.1,1433.7,335.4,1433.7z"/>
								<path class="st33" d="M458.4,1408.9l0.1,0.4c4.1,14.7,14.3,24.3,25.7,24.3h91.5c11.4,0,21.6-9.7,25.7-24.3l0.1-0.4H458.4z"
									/>
							</g>
						</g>
					</g>
				</g>
				
					<ellipse transform="matrix(0.2718 -0.9623 0.9623 0.2718 301.1842 1676.932)" class="st33" cx="1258.7" cy="639.4" rx="16.5" ry="12.2"/>
			</g>
			<g>
				<g class="st37">
					<path class="st35" d="M966.9,925.9c-57.8,0-97.3-51-88.2-113.8c9.1-62.7,63.6-113.8,121.3-113.8c57.8,0,97.3,51,88.2,113.8
						C1079.1,874.9,1024.7,925.9,966.9,925.9z M998.7,708.2c-52.7,0-102.4,46.6-110.8,103.9c-8.4,57.3,27.8,103.9,80.5,103.9
						c52.7,0,102.4-46.6,110.8-103.9C1087.5,754.8,1051.4,708.2,998.7,708.2z"/>
					<path class="st35" d="M967.2,924.4c-14.3,0-25.8-12-32.3-33.8c-6.3-21-7.4-48.9-3.1-78.5c4.3-29.6,13.6-57.5,26-78.5
						c12.9-21.8,27.9-33.8,42.2-33.8s25.8,12,32.3,33.8c6.3,21,7.4,48.9,3.1,78.5c-4.3,29.6-13.6,57.5-26,78.5
						C996.4,912.4,981.4,924.4,967.2,924.4z M998.9,706.7c-11.7,0-24.5,10.6-35.9,29.9c-11.9,20.1-20.8,46.9-24.9,75.5
						c-4.2,28.6-3.1,55.4,2.9,75.4c5.8,19.3,15.5,29.9,27.2,29.9c11.7,0,24.5-10.6,35.9-29.9c11.9-20.1,20.8-46.9,24.9-75.4
						c4.2-28.6,3.1-55.4-2.9-75.5C1020.3,717.4,1010.6,706.7,998.9,706.7z"/>
					<path class="st35" d="M989.1,774c-33,0-62.1-8.1-79.9-22.3l-3.6-2.9l3.5-4.2c11.6-14,25.8-25.7,41.2-33.6
						c15.9-8.2,33.1-12.6,49.8-12.6s32.6,4.4,46.1,12.6c13.1,8,23.9,19.6,31.4,33.6l2.2,4.2l-4.4,2.9
						C1053.6,765.8,1022.1,774,989.1,774z M919.3,746.2c16.6,11.2,42.8,17.9,71.3,17.9c28.5,0,56.6-6.6,76.5-17.9
						c-14.6-23.9-39.8-37.9-68.3-37.9C970.1,708.2,940.8,722.3,919.3,746.2z"/>
					<path class="st35" d="M966.9,925.9c-32.7,0-60.6-16.1-76.5-44.3l-2.4-4.3l4.7-2.9c21.8-13.6,52.8-21.3,84.9-21.3
						c32.1,0,60.8,7.8,78.6,21.3l3.8,2.9l-3.7,4.3C1032.2,909.8,999.6,925.9,966.9,925.9z M901.2,880c14.9,23,39.1,36,67.2,36
						c28.1,0,56.1-13.1,77.7-36c-16.8-10.8-41.9-17-69.9-17C948.1,863,921.1,869.1,901.2,880z"/>
					<path class="st35" d="M966.9,925.9c-2.5,0-4.2-2.2-3.8-5l31.7-217.7c0.4-2.7,2.8-5,5.3-5c2.5,0,4.2,2.2,3.8,5L972.2,921
						C971.8,923.7,969.5,925.9,966.9,925.9z"/>
					<path class="st35" d="M1083,817.1H882.6c-2.5,0-4.2-2.2-3.8-5c0.4-2.7,2.8-5,5.3-5h200.4c2.5,0,4.2,2.2,3.8,5
						C1087.9,814.9,1085.5,817.1,1083,817.1z"/>
				</g>
				<path class="st38" d="M1717.7,811.1l16.5-51.4c1.2-3.6-0.2-7.6-3.2-9.5l-25.8-16.2c-3-1.9-6.9-1.2-9.2,1.7l-32,40.3
					c-11.1-4.8-22.7-8.4-34.5-10.9l-9.4-53.5c-0.7-3.7-3.7-6.5-7.2-6.5H1583c-3.5,0-6.5,2.7-7.2,6.5l-9.1,52.1
					c-11.7,1.9-23.4,5-35,9.4l-32.7-41.2c-2.3-2.9-6.1-3.6-9.2-1.7l-25.8,16.2c-3,1.9-4.4,5.9-3.2,9.5l16.1,50.2
					c-9.5,8.2-18.1,17.3-25.9,27.1l-47.4-17.9c-3.3-1.3-7,0.2-8.7,3.5l-14.9,28.1c-1.8,3.3-1.1,7.5,1.6,10l37.1,34.8
					c-4.4,12.1-7.8,24.6-10,37.5l-49.3,10.2c-3.4,0.7-5.9,4-5.9,7.8v32.4c0,3.8,2.5,7.1,5.9,7.8l48,9.9c1.7,12.7,4.6,25.4,8.7,38
					l-37.9,35.5c-2.7,2.5-3.3,6.7-1.6,10l14.9,28.1c1.8,3.3,5.4,4.8,8.7,3.5l46.2-17.5c7.5,10.3,15.9,19.7,25,28.1l-9,28.2h228.7
					l39.7-327C1726.5,819.6,1722.2,815.2,1717.7,811.1z M1594.5,1074.7c-54.7,0-99.1-48.2-99.1-107.7c0-59.5,44.4-107.7,99.1-107.7
					s99.1,48.2,99.1,107.7C1693.6,1026.5,1649.2,1074.7,1594.5,1074.7z"/>
			</g>
		</g>
		<g>
			<g>
				<g>
					<path class="st32" d="M791.8,1028.9h-170c-5.1,0-8.6-4.9-7.8-10.9l18.8-139.9c0.8-6,5.6-10.9,10.7-10.9h170
						c5.1,0,8.6,4.9,7.8,10.9L802.5,1018C801.7,1024,796.9,1028.9,791.8,1028.9z"/>
					<g>
						<linearGradient id="SVGID_8_" gradientUnits="userSpaceOnUse" x1="709.2626" y1="1017.9831" x2="709.2626" y2="856.2192">
							<stop  offset="0" style="stop-color:#FF5F18"/>
							<stop  offset="0.1538" style="stop-color:#FF701D"/>
							<stop  offset="0.5072" style="stop-color:#FF9028"/>
							<stop  offset="0.8019" style="stop-color:#FFA52F"/>
							<stop  offset="1" style="stop-color:#FFAC31"/>
						</linearGradient>
						<path class="st39" d="M783.4,1018h-170c-5.1,0-8.6-4.9-7.8-10.9l18.8-139.9c0.8-6,5.6-10.9,10.7-10.9h170
							c5.1,0,8.6,4.9,7.8,10.9l-18.8,139.9C793.3,1013.1,788.5,1018,783.4,1018z"/>
						<path class="st40" d="M783.4,1020.6h-170c-2.9,0-5.6-1.2-7.6-3.4c-2.3-2.7-3.3-6.5-2.8-10.4l18.8-139.9
							c1-7.4,6.8-13.2,13.3-13.2h170c2.9,0,5.6,1.2,7.6,3.4c2.3,2.7,3.3,6.5,2.8,10.4l-18.8,139.9
							C795.7,1014.8,789.9,1020.6,783.4,1020.6z M635.1,858.8c-3.8,0-7.5,4-8.1,8.7l-18.8,139.9c-0.3,2.5,0.2,4.8,1.6,6.3
							c0.9,1.1,2.2,1.7,3.6,1.7h170c3.8,0,7.5-4,8.1-8.7l18.8-139.9c0.3-2.5-0.2-4.8-1.6-6.3c-0.9-1.1-2.2-1.7-3.6-1.7H635.1z"/>
					</g>
					<g>
						<path class="st40" d="M786.2,1019.8h-0.8l-78.8-82.9l100.6-82.6h0.7c2.1,0,3.9,0.9,5.3,2.4c1.7,1.9,2.4,4.6,2,7.5l-19.6,146.2
							C794.8,1015.7,790.7,1019.8,786.2,1019.8z M712,937.3l74.9,78.8c2.4-0.5,4.6-3.1,5-6.1l19.6-146.2c0.2-1.8-0.2-3.4-1.1-4.5
							c-0.4-0.4-1-0.9-1.9-1.1L712,937.3z"/>
					</g>
					<g>
						<path class="st40" d="M611.3,1019.8h-0.7c-2.1,0-3.9-0.9-5.3-2.4c-1.7-1.9-2.4-4.6-2-7.5L623,863.8c0.7-5.3,4.8-9.4,9.4-9.4
							h0.8l78.8,82.9L611.3,1019.8z M631.6,858.1c-2.4,0.5-4.6,3.1-5,6.1l-19.6,146.2c-0.2,1.8,0.2,3.4,1.1,4.5
							c0.4,0.4,1,0.9,1.9,1.1l96.5-79.1L631.6,858.1z"/>
					</g>
				</g>
				<g>
					<path class="st41" d="M694.6,945.3l-64.3-74.5c-3.4-3.3-0.5-10.6,4.3-10.6h170.3c4.8,0,5.7,7.3,1.4,10.6l-84,74.5
						C713.1,952.4,701.9,952.4,694.6,945.3z"/>
					<path class="st40" d="M707.7,953.4c-5.6,0-10.9-2.1-15.1-6.1l-0.2-0.2l-64.2-74.5c-2.3-2.3-2.9-6.1-1.5-9.5
						c1.4-3.5,4.5-5.8,7.8-5.8h170.3c3,0,5.5,1.8,6.5,4.8c1.3,3.8-0.1,8.3-3.4,10.8l-83.8,74.4C719,951.4,713.2,953.4,707.7,953.4z
						 M696.6,943.4c6.3,6,16,5.9,24.1-0.3l83.8-74.4c1.7-1.3,2.1-3.4,1.6-4.7c-0.4-1-1-1-1.2-1H634.6c-1.2,0-2.1,1.2-2.6,2.3
						c-0.5,1.2-0.6,2.7,0.3,3.5l0.2,0.2L696.6,943.4z"/>
				</g>
			</g>
		</g>
		<g>
			<path class="st35" d="M846.7,1359h647.7c62.2,0,121.2-55.2,131.6-123.8c0.1-0.5,0.1-1,0.2-1.4c11.3-77.6-22.1-144.1-79.3-171.9
				c-3.6-89.5-62.1-158.3-145.1-166.4c-25.2-87.6-97.5-148-191.4-148c-106.1,0-207.2,77.3-252.4,183.6
				c-108.2,9.8-206.4,108.4-224,228.7c-9.4,64.4,6.2,122.6,38.9,164.3C790.7,1346.5,817.3,1359,846.7,1359z"/>
			<g>
				<path class="st0" d="M796.1,1333h647.7c62.2,0,121.2-55.2,131.6-123.8c0.1-0.5,0.1-1,0.2-1.4c11.3-77.6-22.1-144.1-79.3-171.9
					c-3.6-89.5-62.1-158.3-145.1-166.4c-25.2-87.6-97.5-148-191.4-148c-106.1,0-207.2,77.3-252.4,183.6
					c-108.2,9.8-206.4,108.4-224,228.7c-9.4,64.4,6.2,122.6,38.9,164.3C740.2,1320.6,766.8,1333,796.1,1333z"/>
				<path class="st32" d="M1443.8,1337.2H796.1c-31.1,0-58.5-13-77-36.7c-34.9-44.5-49-104-39.7-167.5c8.6-58.8,36.7-115,79.2-158.1
					c41.6-42.3,93.4-68.5,146.1-73.9c22.5-51.8,59.3-98.3,103.7-131.1c46.8-34.5,99.2-52.8,151.5-52.8c46.3,0,89.2,14.6,124.1,42.1
					c33.2,26.2,57.5,62.9,70.6,106.3c81.7,9.4,141.3,77.8,145.9,167.6c59.4,30.3,90.5,98.7,79.4,175.2l-0.2,1.5
					C1568.9,1280.1,1508,1337.2,1443.8,1337.2z M1159.9,725.6c-102.6,0-202.5,72.7-248.5,181l-1,2.3l-2.5,0.2
					c-106.5,9.6-203.2,108.5-220.2,225.1c-8.9,61.2,4.6,118.4,38,161.1c16.9,21.6,41.9,33.4,70.4,33.4h647.7
					c60.2,0,117.3-53.9,127.5-120.2l0.2-1.4c10.8-73.7-19.5-139.5-77-167.5l-2.3-1.1l-0.1-2.5c-3.5-87.8-61.6-154.6-141.3-162.4
					l-2.8-0.3l-0.8-2.8C1321.8,782.5,1248.3,725.6,1159.9,725.6z"/>
			</g>
		</g>
		<g>
			<path class="st35" d="M743.3,1303.3H622.8c-14.6,0-24.6-13.1-22.3-29.3l17.4-121.6c2.3-16.2,16-29.3,30.7-29.3H769
				c14.6,0,24.6,13.1,22.3,29.3L773.9,1274C771.6,1290.2,757.9,1303.3,743.3,1303.3z"/>
			<path class="st32" d="M734.1,1294.1H611.4c-14.9,0-25-13.4-22.7-29.9l17.7-123.8c2.4-16.5,16.3-29.9,31.2-29.9h122.7
				c14.9,0,25,13.4,22.7,29.9l-17.7,123.8C763,1280.7,749,1294.1,734.1,1294.1z"/>
			<g>
				<path class="st35" d="M659.4,1207.1c-1.2,0-2.2-0.6-2.8-1.7c-2.5-4.6-4.2-9.8-5.1-15.4c-2-12.6,0.3-26,6.6-37.7
					c6.4-11.8,16-20.5,27.1-24.5c16.7-5.9,33.5,0.2,42.8,15.7c3.1,5.1,5.1,10.9,6.2,17.3c0.4,2.2-1.1,4.6-3.2,5.3
					c-2.1,0.7-4.1-0.4-4.4-2.7c-0.9-5.4-2.6-10.3-5.2-14.6c-7.7-12.7-21.4-17.9-34.9-13.1c-8.9,3.2-16.7,10.2-21.9,19.8
					c-5.2,9.8-7.2,21-5.5,31.7c0.8,4.7,2.2,9.1,4.3,13c1,1.9,0.3,4.5-1.6,5.9C661,1206.8,660.2,1207.1,659.4,1207.1z"/>
				<path class="st2" d="M716.2,1279h-82.5c-5.4,0-9.1-4.9-8.3-10.9l10.3-72.4c0.9-6,6-10.9,11.4-10.9h82.5c5.4,0,9.1,4.9,8.3,10.9
					l-10.3,72.4C726.7,1274.1,721.6,1279,716.2,1279z"/>
				<path class="st12" d="M692.3,1225.4c1-6.8-3.2-12.4-9.4-12.4c-6.2,0-12,5.5-13,12.4c-0.7,4.6,1,8.6,4.1,10.7l-1.6,11.5
					c-0.5,3.6,1.7,6.6,5,6.6c3.3,0,6.4-3,6.9-6.6l1.7-12C689.3,1233.3,691.7,1229.6,692.3,1225.4z"/>
				<path class="st42" d="M729.5,1184.8L729.5,1184.8c-0.1,0-0.1,0.1-0.1,0.1l-10.3,71.8c-0.9,6.1-6,11-11.5,11h-82
					c-0.1,0-0.1,0.1-0.1,0.1l0,0.1c-0.9,6.1,2.9,11,8.4,11h82.2c5.5,0,10.6-4.9,11.5-11l10.3-72.1
					C738.8,1189.7,735,1184.8,729.5,1184.8z"/>
				<path class="st35" d="M692.3,1225.4c0.9-6.2-2.5-11.4-7.8-12.2c-5.5,0.9-10.4,6-11.3,12.2c-0.7,4.6,1,8.6,4.1,10.7l-1.6,11.5
					c-0.4,3,1,5.5,3.4,6.3c2.6-0.8,4.8-3.3,5.2-6.3l1.7-12C689.3,1233.3,691.7,1229.6,692.3,1225.4z"/>
			</g>
		</g>
		<g>
			<g>
				<g>
					<g>
						<path class="st35" d="M952.8,1141.1c-5.6,0-10.7-3-13.1-8.5c-19.6-43.3-23.3-95.6-10.4-147C960,863.2,1075,775,1185.6,789
							c46.5,5.9,87.3,29.6,114.9,66.8c5.5,7.4,3.6,19.2-4.3,26.3c-7.8,7.1-18.7,6.9-24.1-0.5c-23-31-57-50.8-95.8-55.7
							c-92.2-11.7-188.1,61.8-213.7,163.9c-10.8,42.9-7.7,86.4,8.6,122.5c3.9,8.6,0,20.1-8.8,25.7
							C959.4,1140.1,956,1141.1,952.8,1141.1z"/>
						<path class="st35" d="M988.9,1066.8l-87.9,47.2c-4,2.1-4.7,7.9-1.2,9.8l64.6,35.8c2.8,1.6,6.7-0.5,7.7-4.2l23.4-82.9
							C996.7,1068,992.8,1064.7,988.9,1066.8z"/>
					</g>
					<g>
						<path class="st43" d="M1104.5,1263.5c-7.9,0-15.7-0.5-23.5-1.5c-46.5-5.9-87.3-29.6-114.9-66.8c-5.5-7.4-3.6-19.2,4.3-26.3
							c7.8-7.1,18.7-6.9,24.1,0.5c23,31,57,50.8,95.8,55.7c44.7,5.7,91.5-8.3,131.9-39.2c40.4-31,69.4-75.2,81.8-124.6
							c10.8-42.9,7.7-86.4-8.6-122.5c-3.9-8.6,0-20.1,8.8-25.7c8.7-5.6,19-3.1,22.9,5.5c19.6,43.4,23.3,95.6,10.4,147
							c-14.9,59.3-49.7,112.4-98.2,149.5C1197.7,1246.6,1150.7,1263.5,1104.5,1263.5z"/>
						<path class="st43" d="M1277.7,984.2l87.9-47.2c4-2.1,4.7-7.9,1.2-9.8l-64.6-35.8c-2.8-1.6-6.7,0.5-7.7,4.2l-23.4,82.9
							C1269.9,983,1273.7,986.3,1277.7,984.2z"/>
					</g>
				</g>
				<g>
					<g>
						<path class="st12" d="M936.6,1143.7c-6.8,0-13.3-3.9-16.3-10.5c-19.6-43.4-23.4-95.4-10.6-146.4
							c14.6-58.2,48.9-110.4,96.4-146.9c48.1-36.9,104.3-53.5,158.1-46.7c47.5,6,89.2,30.3,117.4,68.3c5.9,7.9,4.2,19.1-3.7,25
							c-7.9,5.9-19.1,4.2-25-3.7c-22.7-30.6-54.9-49.3-93.2-54.2c-92.8-11.7-189.4,63.1-215.5,166.9c-10.9,43.3-7.9,87,8.5,123.1
							c4.1,9,0.1,19.5-8.9,23.6C941.6,1143.2,939.1,1143.7,936.6,1143.7z"/>
						<path class="st12" d="M970,1070.1l-87.9,47.2c-4,2.1-4.7,7.9-1.2,9.8l64.6,35.8c2.8,1.6,6.7-0.5,7.7-4.2l23.4-82.9
							C977.8,1071.3,973.9,1068,970,1070.1z"/>
					</g>
					<g>
						<path class="st41" d="M1085.6,1266.8c-7.9,0-15.7-0.5-23.5-1.5c-46.5-5.9-87.3-29.6-114.9-66.8c-5.5-7.4-3.6-19.2,4.3-26.3
							c7.8-7.1,18.7-6.9,24.1,0.5c23,31,57,50.8,95.8,55.7c44.7,5.7,91.5-8.3,131.9-39.2c40.4-31,69.4-75.2,81.8-124.6
							c10.8-42.9,7.7-86.4-8.6-122.5c-3.9-8.6,0-20.1,8.8-25.7c8.7-5.6,19-3.1,22.9,5.5c19.6,43.3,23.3,95.6,10.4,147
							c-14.9,59.3-49.7,112.4-98.2,149.5C1178.8,1250,1131.8,1266.8,1085.6,1266.8z"/>
						<path class="st41" d="M1258.8,987.6l87.9-47.2c4-2.1,4.7-7.9,1.2-9.8l-64.6-35.8c-2.8-1.6-6.7,0.5-7.7,4.2l-23.4,82.9
							C1251,986.4,1254.8,989.7,1258.8,987.6z"/>
					</g>
				</g>
			</g>
			<g>
				<g>
					
						<ellipse transform="matrix(0.5427 -0.8399 0.8399 0.5427 -283.6299 1395.0449)" class="st12" cx="1139.4" cy="958" rx="51.2" ry="43.1"/>
					<path class="st12" d="M1183.5,1005.4c-1.7-2.3-5.2-1.9-7.4,0.6c-12.2,14.1-29.3,23.2-47.1,23.2c-17.8,0-32.2-9.1-40.3-23.2
						c-1.4-2.5-4.8-2.9-7.2-0.6c-18.7,18-32.7,44.3-36.9,73.6c-1.2,8.4-1.6,16.6-1.1,24.4c0.1,2.4,1.8,4.2,4.1,4.2h140.1
						c2.3,0,4.5-1.7,5.4-4.2c2.7-7.8,4.8-16,6-24.4C1203.2,1049.7,1196.9,1023.4,1183.5,1005.4z"/>
				</g>
				<g>
					
						<ellipse transform="matrix(0.5427 -0.8399 0.8399 0.5427 -287.4474 1390.7665)" class="st32" cx="1133.5" cy="959.4" rx="51.2" ry="43.1"/>
					<path class="st32" d="M1177.6,1006.8c-1.7-2.3-5.2-1.9-7.4,0.6c-12.2,14.1-29.3,23.2-47.1,23.2c-17.8,0-32.2-9.1-40.3-23.2
						c-1.4-2.5-4.8-2.9-7.2-0.6c-18.7,18-32.7,44.3-36.9,73.6c-1.2,8.4-1.6,16.6-1.1,24.4c0.1,2.4,1.8,4.2,4.1,4.2h140.1
						c2.3,0,4.5-1.7,5.4-4.2c2.7-7.8,4.8-16,6-24.4C1197.4,1051.1,1191.1,1024.7,1177.6,1006.8z"/>
				</g>
			</g>
		</g>
		<g>
			<path class="st35" d="M1573.4,761.5h-143c-16.1,0-27.1-14.2-24.6-31.7l17.7-121.6c2.6-17.5,17.7-31.7,33.8-31.7h143
				c16.1,0,27.1,14.2,24.6,31.7l-17.7,121.6C1604.7,747.3,1589.5,761.5,1573.4,761.5z"/>
			<g>
				<path class="st2" d="M1562,748h-143c-16.1,0-27.1-14.2-24.6-31.7l17.7-121.6c2.6-17.5,17.7-31.7,33.8-31.7h143
					c16.1,0,27.1,14.2,24.6,31.7l-17.7,121.6C1593.2,733.8,1578.1,748,1562,748z"/>
				<path class="st32" d="M1562,750.2h-143c-7.9,0-15.1-3.2-20.1-9c-5.6-6.5-8-15.7-6.6-25.2l17.7-121.6c2.7-18.5,18.8-33.6,36-33.6
					h143c7.9,0,15.1,3.2,20.1,9c5.6,6.5,8,15.7,6.6,25.2l-17.7,121.6C1595.2,735.2,1579.1,750.2,1562,750.2z M1445.9,565.3
					c-15,0-29.2,13.4-31.6,29.8l-17.7,121.6c-1.2,8.3,0.8,16.2,5.6,21.7c4.2,4.8,10.1,7.5,16.8,7.5h143c15,0,29.2-13.4,31.6-29.8
					l17.7-121.6c1.2-8.3-0.8-16.2-5.6-21.7c-4.2-4.8-10.1-7.5-16.8-7.5H1445.9z"/>
			</g>
			<g>
				<path class="st32" d="M1511.5,695.7c-1.2,8.1-8.1,14.6-15.6,14.6s-12.5-6.5-11.3-14.6c1.2-8.1,8.1-14.6,15.6-14.6
					S1512.7,687.7,1511.5,695.7z"/>
				<g>
					<path class="st32" d="M1574.4,649.3c-1.9,0-3.7-0.8-4.8-2.5c-13.7-19.6-35.5-30.8-59.9-30.8c-24.4,0-49.5,11.2-68.8,30.8
						c-3.1,3.1-7.6,3.3-10,0.5c-2.4-2.9-1.9-7.7,1.1-10.8c22.5-22.7,51.6-35.7,79.9-35.7c28.3,0,53.7,13,69.5,35.7
						c2.2,3.1,1.3,7.9-2,10.8C1577.9,648.7,1576.1,649.3,1574.4,649.3z"/>
				</g>
				<g>
					<path class="st32" d="M1545.1,676c-1.7,0-3.4-0.7-4.5-2.1c-9-11-22.1-17.1-36.8-17.1c-14.7,0-29.5,6.1-41.8,17.1
						c-3.2,2.9-7.7,2.8-9.9-0.3c-2.2-3.1-1.4-7.9,1.8-10.8c15.3-13.8,33.8-21.3,52.1-21.3c18.3,0,34.6,7.6,45.9,21.3
						c2.4,2.9,1.8,7.7-1.3,10.8C1548.9,675.2,1547,676,1545.1,676z"/>
				</g>
			</g>
		</g>
		<g>
			<g>
				<path class="st35" d="M1724.8,1550.9h-269.7c-12.1,0-20-12.7-17.7-28.4l69.8-478.4c2.3-15.7,13.9-28.4,26-28.4h269.7
					c12.1,0,20,12.7,17.7,28.4l-69.8,478.4C1748.5,1538.2,1736.8,1550.9,1724.8,1550.9z"/>
				<g>
					<path class="st0" d="M1699.8,1530.3h-269.7c-12.1,0-20-12.7-17.7-28.4l69.8-478.4c2.3-15.7,13.9-28.4,26-28.4h269.7
						c12.1,0,20,12.7,17.7,28.4l-69.8,478.4C1723.5,1517.6,1711.8,1530.3,1699.8,1530.3z"/>
					<path class="st32" d="M1699.8,1532.5h-269.7c-5.4,0-10.4-2.3-14-6.5c-5.1-5.9-7.2-14.8-5.8-24.4l69.8-478.4
						c2.4-16.7,15.1-30.3,28.1-30.3h269.7c5.4,0,10.4,2.3,14,6.5c5.1,5.9,7.2,14.8,5.8,24.4l-69.8,478.4
						C1725.5,1518.9,1712.9,1532.5,1699.8,1532.5z M1508.1,997.2c-11,0-21.7,11.9-23.8,26.5l-69.8,478.4c-1.2,8.2,0.6,16,4.8,20.9
						c2.8,3.3,6.5,5,10.7,5h269.7c11,0,21.7-11.9,23.8-26.5l69.8-478.4c1.2-8.2-0.6-16-4.8-20.9c-2.8-3.3-6.5-5-10.7-5H1508.1z"/>
				</g>
				<polygon class="st2" points="1707.4,1477.5 1437.8,1477.5 1502.1,1036.4 1771.7,1036.4 				"/>
				<path class="st32" d="M1642.9,1020.2c-0.4,2.6-2.3,4.7-4.3,4.7c-2,0-3.3-2.1-2.9-4.7c0.4-2.6,2.3-4.7,4.3-4.7
					S1643.3,1017.6,1642.9,1020.2z"/>
				<path class="st32" d="M1577.5,1515.9h-21c-3.8,0-6.3-4-5.6-9l0,0c0.7-4.9,4.4-9,8.2-9h21c3.8,0,6.3,4,5.6,9l0,0
					C1585,1511.9,1581.3,1515.9,1577.5,1515.9z"/>
			</g>
			<g>
				<g>
					<g>
						<path class="st32" d="M1515.2,1304.6c-3,0-5.9-1.8-7.4-5c-9.5-20.9-11.3-46.1-5.1-70.7c14.5-57.7,68.9-99.3,121.2-92.7
							c22.5,2.8,42.3,14.4,55.8,32.6c2.8,3.8,2.3,9.4-1.2,12.5c-3.5,3.1-8.7,2.5-11.5-1.3c-10.9-14.7-26.4-23.7-44.9-26
							c-44.6-5.7-91.1,30.1-103.5,79.7c-5.1,20.5-3.7,41.1,4,58.2c2,4.4,0.3,9.7-3.7,11.9
							C1517.7,1304.4,1516.5,1304.6,1515.2,1304.6z"/>
						<path class="st32" d="M1531.2,1269.1l-42.1,22.6c-1.9,1-2.2,3.8-0.6,4.7l30.9,17.1c1.4,0.7,3.2-0.2,3.7-2l11.2-39.7
							C1534.9,1269.7,1533.1,1268.1,1531.2,1269.1z"/>
					</g>
					<g>
						<path class="st32" d="M1586.5,1363.2c-3.8,0-7.5-0.2-11.3-0.7c-22.2-2.8-41.7-14.2-54.9-32c-2.6-3.5-1.7-9.2,2-12.6
							c3.8-3.4,8.9-3.3,11.5,0.2c11,14.8,27.3,24.3,45.8,26.6c21.4,2.7,43.8-4,63.1-18.8c19.3-14.8,33.2-36,39.1-59.6
							c5.1-20.5,3.7-41.3-4.1-58.6c-1.9-4.1,0-9.6,4.2-12.3c4.2-2.7,9.1-1.5,10.9,2.6c9.4,20.7,11.1,45.7,5,70.3
							c-7.1,28.4-23.8,53.7-46.9,71.5C1631.1,1355.1,1608.6,1363.2,1586.5,1363.2z"/>
						<path class="st32" d="M1669.3,1229.6l42.1-22.6c1.9-1,2.2-3.8,0.6-4.7l-30.9-17.1c-1.4-0.7-3.2,0.2-3.7,2l-11.2,39.7
							C1665.6,1229.1,1667.4,1230.6,1669.3,1229.6z"/>
					</g>
				</g>
			</g>
		</g>
		<g>
			<g>
				<path class="st35" d="M1840.9,973.4h-199c-22.4,0-37.7-19.7-34.2-44.1l24.7-169.1c3.6-24.3,24.6-44.1,47-44.1h199
					c22.4,0,37.7,19.7,34.2,44.1l-24.7,169.1C1884.4,953.6,1863.3,973.4,1840.9,973.4z"/>
				<path class="st32" d="M1825,954.6h-199c-22.4,0-37.7-19.7-34.2-44.1l24.7-169.1c3.6-24.3,24.6-44.1,47-44.1h199
					c22.4,0,37.7,19.7,34.2,44.1L1872,910.5C1868.5,934.8,1847.4,954.6,1825,954.6z"/>
			</g>
			<g>
				<path class="st33" d="M1776,792.8l-13.1-2.8c0-3.6-0.2-7.1-0.9-10.7l12.1-10c0.8-0.7,1.2-1.9,0.8-2.8l-3-7.9
					c-0.4-0.9-1.3-1.3-2.3-1l-13.7,4.9c-1.7-2.9-3.7-5.5-5.9-7.9l6.7-14.5c0.5-1,0.3-2.1-0.5-2.7l-6.6-4.6c-0.8-0.5-1.9-0.3-2.7,0.5
					l-10.6,11.3c-2.9-1.3-6-2.4-9.2-3l-0.4-15c0-1.1-0.8-1.8-1.8-1.8h-8.4c-1,0-1.9,0.8-2.3,1.8l-4.7,14.6
					c-3.4,0.5-6.8,1.4-10.2,2.6l-7.5-11.6c-0.5-0.8-1.6-1-2.5-0.5l-7.9,4.6c-0.9,0.5-1.5,1.7-1.3,2.7l2.5,14.1
					c-3,2.3-5.8,4.9-8.4,7.6l-12.6-5c-0.9-0.4-2,0.1-2.6,1l-5.3,7.9c-0.6,0.9-0.6,2.1,0,2.8l9,9.8c-1.7,3.4-3.2,6.9-4.3,10.5
					l-14.3,2.9c-1,0.2-1.8,1.1-2,2.2l-1.3,9.1c-0.2,1.1,0.4,2,1.3,2.2l13.1,2.8c0,3.6,0.2,7.1,0.9,10.7l-12.1,10
					c-0.8,0.7-1.2,1.9-0.8,2.8l3,7.9c0.4,0.9,1.3,1.3,2.3,1l13.7-4.9c1.7,2.9,3.7,5.5,5.9,7.9l-6.7,14.4c-0.5,1-0.3,2.1,0.5,2.7
					l6.6,4.6c0.8,0.5,1.9,0.3,2.6-0.5l10.6-11.3c2.9,1.3,6,2.4,9.2,3l0.4,15c0,1.1,0.8,1.8,1.8,1.8h8.4c1,0,1.9-0.8,2.3-1.8
					l4.7-14.6c3.4-0.5,6.8-1.4,10.2-2.6l7.5,11.6c0.5,0.8,1.6,1,2.5,0.5l7.9-4.6c0.9-0.5,1.5-1.7,1.3-2.7l-2.5-14.1
					c3-2.3,5.8-4.9,8.4-7.6l12.6,5c0.9,0.4,2-0.1,2.6-1l5.3-7.9c0.6-0.9,0.6-2.1,0-2.8l-9-9.8c1.7-3.4,3.2-6.9,4.3-10.5l14.3-2.9
					c1-0.2,1.8-1.1,2-2.2l1.3-9.1C1777.5,793.9,1776.9,793,1776,792.8z M1736.9,798.5c-2.4,16.7-16.9,30.2-32.2,30.2
					s-25.9-13.5-23.4-30.2c2.4-16.7,16.9-30.2,32.2-30.2C1728.9,768.2,1739.4,781.8,1736.9,798.5z"/>
				<g>
					<g>
						<path class="st41" d="M1656.3,789.8l-2.2,15.2c-0.2,1.4-1.5,2.5-2.8,2.2l-14.3-3.1c-0.9-0.2-1.5-1.1-1.3-2.2l1.3-9.1
							c0.2-1.1,1-2,2-2.2l15.2-3.1C1655.5,787.3,1656.5,788.4,1656.3,789.8z"/>
						<g>
							<path class="st41" d="M1719.6,745.4h-14c-1.3,0-2.1-1.3-1.6-2.6l5.2-16.1c0.3-1.1,1.3-1.8,2.3-1.8h8.4c1,0,1.7,0.8,1.8,1.8
								l0.5,16.1C1722.1,744.1,1720.9,745.4,1719.6,745.4z"/>
							<path class="st41" d="M1693.7,748.2l-13.2,7.6c-1.2,0.7-2.6,0.1-2.8-1.2l-2.7-15.4c-0.2-1,0.4-2.1,1.3-2.7l7.9-4.6
								c0.9-0.5,2-0.3,2.5,0.5l8,12.4C1695.4,745.8,1694.9,747.5,1693.7,748.2z"/>
							<path class="st41" d="M1670.5,764.4l-8.9,13.2c-0.8,1.2-2.4,1.5-3.2,0.6l-9.8-10.7c-0.6-0.7-0.7-1.9,0-2.8l5.3-7.9
								c0.6-0.9,1.7-1.3,2.6-1l13.4,5.4C1671.1,761.7,1671.4,763.2,1670.5,764.4z"/>
							<path class="st41" d="M1654.8,817.5l5.1,13.2c0.5,1.2-0.3,2.8-1.6,3.2l-15,5.4c-1,0.4-2-0.1-2.3-1l-3-7.9
								c-0.4-0.9,0-2.1,0.8-2.8l12.9-10.7C1652.9,816,1654.4,816.3,1654.8,817.5z"/>
							<path class="st41" d="M1666.5,840.1l11,7.6c1,0.7,1,2.3,0,3.4l-11.6,12.4c-0.8,0.8-1.9,1-2.7,0.5l-6.6-4.6
								c-0.8-0.5-1-1.7-0.5-2.7l7.2-15.4C1664,840,1665.5,839.4,1666.5,840.1z"/>
							<path class="st41" d="M1688.2,851.5h14c1.3,0,2.1,1.3,1.6,2.6l-5.2,16.1c-0.3,1.1-1.3,1.8-2.3,1.8h-8.4c-1,0-1.7-0.8-1.8-1.8
								l-0.5-16.1C1685.7,852.8,1686.9,851.5,1688.2,851.5z"/>
							<path class="st41" d="M1714.1,848.7l13.2-7.6c1.2-0.7,2.6-0.1,2.8,1.2l2.7,15.4c0.2,1-0.4,2.1-1.3,2.7l-7.9,4.6
								c-0.9,0.5-2,0.3-2.5-0.5l-8-12.4C1712.4,851.1,1712.9,849.4,1714.1,848.7z"/>
							<path class="st41" d="M1737.3,832.5l8.9-13.2c0.8-1.2,2.4-1.5,3.2-0.6l9.8,10.7c0.6,0.7,0.7,1.9,0,2.8l-5.3,7.9
								c-0.6,0.9-1.7,1.3-2.6,1l-13.4-5.4C1736.7,835.3,1736.4,833.7,1737.3,832.5z"/>
							<path class="st41" d="M1751.5,807.1l2.2-15.2c0.2-1.4,1.5-2.5,2.8-2.2l14.3,3.1c0.9,0.2,1.5,1.1,1.3,2.2l-1.3,9.1
								c-0.2,1.1-1,2-2,2.2l-15.2,3.1C1752.3,809.6,1751.3,808.5,1751.5,807.1z"/>
							<path class="st41" d="M1753,779.4l-5.1-13.2c-0.5-1.2,0.3-2.8,1.6-3.2l15-5.4c1-0.4,2,0.1,2.3,1l3,7.9c0.4,0.9,0,2.1-0.8,2.8
								L1756,780C1754.9,780.9,1753.4,780.6,1753,779.4z"/>
							<path class="st41" d="M1741.3,756.8l-11-7.6c-1-0.7-1-2.3,0-3.4l11.6-12.4c0.8-0.8,1.9-1,2.7-0.5l6.6,4.6
								c0.8,0.5,1,1.7,0.5,2.7l-7.2,15.4C1743.8,757,1742.3,757.5,1741.3,756.8z"/>
						</g>
					</g>
					<path class="st43" d="M1716.5,851.8c-28.9,12.2-58-1.8-64.9-31.3c-6.9-29.4,10.9-63.3,39.8-75.5s58,1.8,64.9,31.3
						C1763.2,805.8,1745.3,839.6,1716.5,851.8z M1694.9,760.3c-20.7,8.7-33.4,32.9-28.5,54c5,21.1,25.8,31.1,46.4,22.4
						c20.7-8.7,33.4-32.9,28.5-54C1736.4,761.6,1715.6,751.6,1694.9,760.3z"/>
					<path class="st41" d="M1710.1,755.7c-21.7,0-42.2,19.1-45.6,42.8c-3.4,23.6,11.4,42.8,33.1,42.8c21.7,0,42.2-19.1,45.6-42.8
						C1746.7,774.8,1731.9,755.7,1710.1,755.7z M1699.5,828.7c-15.4,0-25.9-13.5-23.4-30.2c2.4-16.7,16.9-30.2,32.2-30.2
						c15.4,0,25.9,13.5,23.4,30.2C1729.3,815.2,1714.9,828.7,1699.5,828.7z"/>
				</g>
			</g>
			<g>
				<path class="st44" d="M1849.7,864l-1-5.9c-0.1-0.8-0.8-1.3-1.7-1.2l-10.1,1.3c-1.2-4-2.9-7.5-5.2-10.6l5.8-9.8
					c0.5-0.8,0.4-1.7-0.2-2.2l-4.2-3.6c-0.6-0.5-1.5-0.5-2.2,0.1l-8.2,7.1c-3.3-2-6.9-3.5-10.8-4.3l-0.4-10.7c0-0.9-0.7-1.5-1.5-1.5
					h-5.9c-0.8,0-1.6,0.6-1.9,1.5l-3.4,10.4c-3.2,0.5-6.5,1.4-9.7,2.7c-0.7,0.3-1.5,0.6-2.2,1l-6.6-7.7c-0.5-0.6-1.4-0.7-2.2-0.1
					l-5.3,3.6c-0.7,0.5-1.1,1.5-0.9,2.2l3,10c-3.1,2.9-5.9,6.1-8.2,9.7c-0.1,0-0.2-0.1-0.3-0.1l-10.5-1.4c-0.8-0.1-1.7,0.4-2,1.2
					l-2.7,5.9c-0.4,0.8-0.2,1.7,0.5,2.2l8.7,5.5c0.1,0,0.1,0.1,0.2,0.1c-1.1,3.8-1.8,7.8-1.8,11.7c-0.3,0-0.5,0.1-0.8,0.2l-10.2,5.5
					c-0.8,0.4-1.3,1.3-1.1,2.2l1,5.9c0.1,0.8,0.8,1.3,1.7,1.2l10.9-1.4c0.2,0,0.4-0.1,0.6-0.2c1.2,3.6,2.9,6.8,4.9,9.6
					c-0.3,0.2-0.7,0.4-0.9,0.8l-6.1,10.3c-0.5,0.8-0.4,1.7,0.2,2.2l4.2,3.6c0.6,0.5,1.5,0.5,2.2-0.1l9-7.8c0.2-0.2,0.4-0.4,0.5-0.6
					c3,1.8,6.3,3.2,9.8,4c-0.2,0.3-0.3,0.7-0.3,1.1l0.4,11.1c0,0.9,0.7,1.5,1.5,1.5h5.9c0.8,0,1.6-0.6,1.9-1.5l3.6-11.1
					c0.1-0.2,0.1-0.4,0.1-0.6c3.4-0.5,6.9-1.4,10.4-2.8c0.2-0.1,0.5-0.2,0.7-0.3c0.1,0.2,0.2,0.5,0.3,0.7l6.7,7.8
					c0.5,0.6,1.4,0.7,2.2,0.1l5.3-3.6c0.7-0.5,1.1-1.5,0.9-2.2l-3.1-10.3c0,0,0-0.1-0.1-0.1c3.2-2.7,6-5.9,8.4-9.3
					c0.1,0,0.2,0.1,0.3,0.1l10.5,1.4c0.8,0.1,1.7-0.4,2-1.2l2.7-5.9c0.4-0.8,0.2-1.7-0.5-2.2l-8.3-5.3c1.3-4,2.2-8.2,2.4-12.3
					l10-5.4C1849.3,865.8,1849.8,864.9,1849.7,864z M1809.5,875.8c-0.9,6.4-6.6,11.5-12.6,11.5c-6,0-10.2-5.1-9.2-11.5
					c0.9-6.4,6.6-11.5,12.6-11.5C1806.3,864.3,1810.4,869.5,1809.5,875.8z"/>
				<g>
					<g>
						<path class="st12" d="M1806.3,838.4h-9.9c-1.1,0-1.7-1-1.4-2.2l3.6-11.1c0.3-0.9,1.1-1.5,1.9-1.5h5.9c0.8,0,1.4,0.6,1.5,1.5
							l0.4,11.1C1808.4,837.3,1807.4,838.4,1806.3,838.4z"/>
						<path class="st12" d="M1782.9,842l-8.9,6.1c-1,0.7-2.2,0.3-2.5-0.7l-3.1-10.3c-0.2-0.8,0.1-1.7,0.9-2.2l5.3-3.6
							c0.7-0.5,1.7-0.5,2.2,0.1l6.7,7.8C1784.1,840,1783.9,841.3,1782.9,842z"/>
						<path class="st12" d="M1763.9,859.1l-4.5,9.9c-0.5,1.1-1.8,1.6-2.6,1l-8.6-5.5c-0.7-0.4-0.9-1.3-0.5-2.2l2.7-5.9
							c0.4-0.8,1.2-1.3,2-1.2l10.5,1.4C1763.9,856.9,1764.4,858,1763.9,859.1z"/>
						<path class="st12" d="M1756.6,883.2l1.6,9.9c0.2,1.1-0.7,2.2-1.8,2.4l-10.9,1.4c-0.8,0.1-1.5-0.4-1.7-1.2l-1-5.9
							c-0.1-0.8,0.3-1.7,1.1-2.2l10.2-5.5C1755.3,881.6,1756.4,882.1,1756.6,883.2z"/>
						<path class="st12" d="M1763.8,905l7.1,6.1c0.8,0.7,0.7,2-0.2,2.8l-9,7.8c-0.7,0.6-1.6,0.7-2.2,0.1l-4.2-3.6
							c-0.6-0.5-0.7-1.5-0.2-2.2l6.1-10.3C1761.8,904.6,1763.1,904.3,1763.8,905z"/>
						<path class="st12" d="M1782.8,916.2h9.9c1.1,0,1.7,1,1.4,2.2l-3.6,11.1c-0.3,0.9-1.1,1.5-1.9,1.5h-5.9c-0.8,0-1.4-0.6-1.5-1.5
							l-0.4-11.1C1780.7,917.2,1781.7,916.2,1782.8,916.2z"/>
						<path class="st12" d="M1806.2,912.5l8.9-6.1c1-0.7,2.2-0.3,2.5,0.7l3.1,10.3c0.2,0.8-0.1,1.7-0.9,2.2l-5.3,3.6
							c-0.7,0.5-1.7,0.5-2.2-0.1l-6.7-7.8C1805,914.5,1805.3,913.2,1806.2,912.5z"/>
						<path class="st12" d="M1825.2,895.4l4.5-9.9c0.5-1.1,1.8-1.6,2.6-1l8.6,5.5c0.7,0.4,0.9,1.3,0.5,2.2l-2.7,5.9
							c-0.4,0.8-1.2,1.3-2,1.2l-10.5-1.4C1825.2,897.6,1824.7,896.5,1825.2,895.4z"/>
						<path class="st12" d="M1832.5,871.3l-1.6-9.9c-0.2-1.1,0.7-2.2,1.8-2.4l10.9-1.4c0.8-0.1,1.5,0.4,1.7,1.2l1,5.9
							c0.1,0.8-0.3,1.7-1.1,2.2l-10.2,5.5C1833.8,872.9,1832.7,872.4,1832.5,871.3z"/>
						<path class="st12" d="M1825.3,849.6l-7.1-6.1c-0.8-0.7-0.7-2,0.2-2.8l9-7.8c0.7-0.6,1.6-0.7,2.2-0.1l4.2,3.6
							c0.6,0.5,0.7,1.5,0.2,2.2l-6.1,10.3C1827.4,849.9,1826.1,850.2,1825.3,849.6z"/>
					</g>
					<path class="st35" d="M1804.6,914.9c-21.4,8.8-43.1-1.3-48.4-22.5c-5.3-21.2,7.9-45.5,29.3-54.3c21.4-8.8,43.1,1.3,48.4,22.5
						C1839.2,881.8,1826,906.2,1804.6,914.9z M1788.3,849.1c-15.3,6.3-24.7,23.7-21,38.9c3.8,15.2,19.3,22.4,34.6,16.1
						c15.3-6.3,24.7-23.7,21-38.9C1819.1,850,1803.6,842.8,1788.3,849.1z"/>
					<path class="st12" d="M1800.2,841.1c-18.6,0-35.9,15.9-38.8,35.4c-2.9,19.6,9.9,35.4,28.4,35.4c18.6,0,35.9-15.9,38.8-35.4
						C1831.5,857,1818.8,841.1,1800.2,841.1z M1793.4,888c-6,0-10.2-5.1-9.2-11.5c0.9-6.4,6.6-11.5,12.6-11.5s10.2,5.1,9.2,11.5
						C1805.1,882.9,1799.4,888,1793.4,888z"/>
				</g>
			</g>
		</g>
	</g>
	<g>
		<g>
			<ellipse class="st14" cx="477.5" cy="1759.5" rx="420.1" ry="34"/>
			<ellipse class="st15" cx="479" cy="1759.5" rx="400.4" ry="32.5"/>
			<ellipse class="st16" cx="480.6" cy="1759.5" rx="380.7" ry="30.9"/>
			<ellipse class="st17" cx="482.1" cy="1759.5" rx="361.1" ry="29.3"/>
			<ellipse class="st18" cx="483.7" cy="1759.5" rx="341.4" ry="27.7"/>
			<ellipse class="st19" cx="485.3" cy="1759.5" rx="321.7" ry="26.1"/>
			<ellipse class="st20" cx="486.8" cy="1759.5" rx="302.1" ry="24.5"/>
			<ellipse class="st21" cx="488.4" cy="1759.5" rx="282.4" ry="22.9"/>
			<ellipse class="st22" cx="489.9" cy="1759.5" rx="262.8" ry="21.3"/>
			<ellipse class="st23" cx="491.5" cy="1759.5" rx="243.1" ry="19.7"/>
			<ellipse class="st24" cx="493" cy="1759.5" rx="223.4" ry="18.1"/>
			<ellipse class="st25" cx="494.6" cy="1759.5" rx="203.8" ry="16.5"/>
			<ellipse class="st26" cx="496.2" cy="1759.5" rx="184.1" ry="14.9"/>
			<ellipse class="st27" cx="497.7" cy="1759.5" rx="164.5" ry="13.3"/>
			<ellipse class="st28" cx="499.3" cy="1759.5" rx="144.8" ry="11.7"/>
			<ellipse class="st29" cx="500.8" cy="1759.5" rx="125.1" ry="10.1"/>
			<ellipse class="st30" cx="502.4" cy="1759.5" rx="105.5" ry="8.5"/>
			<ellipse class="st31" cx="504" cy="1759.5" rx="85.8" ry="7"/>
			<ellipse class="st6" cx="505.5" cy="1759.5" rx="66.1" ry="5.4"/>
		</g>
		<g>
			<path class="st45" d="M308.1,1108.1c-0.9-10.2,21.9-137.9,40-166.3c18.1-28.4,41.8-37.1,43.7-22.3
				c8.8,69.4-25.2,161.1-35.8,187.6c-1.9,4.8-2.5,10.1-1.5,15.2c2.4,13,7.2,42.2,9.9,84.6c0.1,1.2,0.5,2.3,1.3,3.2l9.8,11.2
				c1.2,1,1.2,2.9-0.2,3.7c-1.9,1.1-3.7,1.6-3.7,7.4c0,9.5,8.9,34.9,12.3,43.3c0.5,1.3-0.7,2.5-2,2.2c-6.7-1.9-21.9-6.6-25.6-10
				c-4.9-4.4-20.3-32.4-19-45.7c0.3-2.9,1.4-5.6,1.8-6.3C337,1212,312.8,1160.4,308.1,1108.1z"/>
			<path class="st46" d="M372.9,1241c-0.7-3.4-1.2-6.4-1.2-8.5c0-5.8,1.8-6.3,3.7-7.4c1.3-0.8,1.4-2.7,0.2-3.7l-9.8-11.2
				c-0.8-0.9-1.3-2.1-1.3-3.2c-2.7-42.4-7.5-71.6-9.9-84.6c-1-5.1-0.4-10.4,1.5-15.2c9.7-24.1,38.8-102.4,37.2-168.6
				c-0.8,1.1-1.6,2.3-2.4,3.6c-27.9,45.2-54.9,145.4-54.1,167.3c0.8,21.9,17.2,100.2,26.1,111.6
				C366.3,1225.6,369.9,1233.3,372.9,1241z"/>
			<path class="st43" d="M312.4,1028.8c0.6-10.2,13.7-63.5,33.1-91.1s38.4-29.2,56.8-21.8c13.8,5.6-26.9,137.8-26.9,137.8
				S311.8,1039,312.4,1028.8z"/>
		</g>
		<g>
			<linearGradient id="SVGID_9_" gradientUnits="userSpaceOnUse" x1="360.946" y1="1702.8204" x2="500.671" y2="1702.8204">
				<stop  offset="0" style="stop-color:#000000"/>
				<stop  offset="0.2038" style="stop-color:#0A1124"/>
				<stop  offset="0.5787" style="stop-color:#1C2D60"/>
				<stop  offset="0.8548" style="stop-color:#273E86"/>
				<stop  offset="1" style="stop-color:#2B4594"/>
			</linearGradient>
			<path class="st47" d="M405.8,1673c0,0,17.8,20.7,35,23.6c11,1.8,27.7,2.9,38.2,3.5c8.3,0.4,16,4.9,20,12.1
				c2.1,3.9,2.8,7.8-1,10.4c-9.7,6.5-51.3,5.2-66.7,7.8c-11.2,1.9-39.3,2.3-53.7,2.4c-6.1,0-11.7-3.6-13.9-9.3
				c-3.2-8.1-5.2-20.2,4.3-31.6C384.1,1672.2,405.8,1673,405.8,1673z"/>
			<path class="st32" d="M474.8,1192.7l-95-24.1c0,0-6.7,23.6-7.6,48.9c-3.6,100.8,12.5,262.7,12.5,262.7s-19,51.2-19,215.2
				c0,20.7,21.4,17.4,34.7,13.3c6.4-1.9,11.2-7.2,12.8-13.7c8.5-36,50-260.4,82.6-468C497.7,1214.6,474.8,1192.7,474.8,1192.7z"/>
			<linearGradient id="SVGID_10_" gradientUnits="userSpaceOnUse" x1="394.1868" y1="1435.7487" x2="485.4811" y2="1435.7487">
				<stop  offset="0" style="stop-color:#2C49A2"/>
				<stop  offset="6.287843e-02" style="stop-color:#2B479C"/>
				<stop  offset="0.4587" style="stop-color:#273C7A"/>
				<stop  offset="0.7852" style="stop-color:#253565"/>
				<stop  offset="1" style="stop-color:#24325D"/>
			</linearGradient>
			<path class="st48" d="M457,1188.2l-13-27.2c3,5.8-10.8,71-4.2,111.8c14.2,88.4,10.4,118.2-8,202.4c-2,9.2-6.8,92.2-37.6,235.2
				c2.2-0.5,4.3-1.1,6.2-1.6c6.4-1.9,11.2-7.2,12.8-13.7c7.6-32.3,41.8-216.2,72.3-403.6L457,1188.2z"/>
		</g>
		<g>
			<g>
				<path class="st45" d="M476.5,831.1l1.6,96.1c0,0,0.6,17.1-32.5,27c-42.2,12.6-31.6-40.1-26.6-45.9c11-12.7,2-82.1,2-82.1
					L476.5,831.1z"/>
			</g>
			<path class="st46" d="M476.5,831.1l-55.5-4.9c0,0,2.1,15.9,3,33.9c17.1,17.2,38.9,29.9,53.5,31L476.5,831.1z"/>
			<g>
				<path class="st45" d="M403.2,807.5c5.7,39.3,64.8,82,86.8,74.7c14-4.6,24.1-33.9,24.6-73.6c0.6-39.4-15.4-60.7-57.1-64.6
					C431.6,741.5,397.6,768.2,403.2,807.5z"/>
			</g>
			<linearGradient id="SVGID_11_" gradientUnits="userSpaceOnUse" x1="457.7582" y1="738.2024" x2="457.7582" y2="870.9988">
				<stop  offset="6.300000e-07" style="stop-color:#2C49A2"/>
				<stop  offset="1" style="stop-color:#000000"/>
			</linearGradient>
			<path class="st49" d="M505.9,755.9C487,733.5,464.2,738,457.4,740c-1.3,0.4-2.7,0.4-4,0c-2.8-0.8-8.1-2.1-14.6-1.7
				c-9.6,0.5-28.4,15.3-36.8,38.7c-8.5,23.4,7.9,78.5,22.4,92.1c4.3,4,21.4,0.2,29.3,1.5c16.9,2.7,15.6-6.5,23.3-21.7l4.2-8.2
				c0.6-1.2,0.2-2.7-1-3.3c-2.2-1.1-4.1-3-5.5-5.4c-3.4-5.8-2.2-12.8,2.6-15.5c3.6-2.1,8.2-1.2,11.7,1.8c1.2,1.1,3.2,0.7,3.9-0.7
				l12.5-24.7c0.2-0.5,0.6-0.8,1.1-1.1C510.2,789.8,526,779.7,505.9,755.9z"/>
		</g>
		<g>
			<linearGradient id="SVGID_12_" gradientUnits="userSpaceOnUse" x1="490.6654" y1="1729.6272" x2="630.3903" y2="1729.6272">
				<stop  offset="0" style="stop-color:#000000"/>
				<stop  offset="0.2038" style="stop-color:#0A1124"/>
				<stop  offset="0.5787" style="stop-color:#1C2D60"/>
				<stop  offset="0.8548" style="stop-color:#273E86"/>
				<stop  offset="1" style="stop-color:#2B4594"/>
			</linearGradient>
			<path class="st50" d="M535.5,1699.8c0,0,17.8,20.7,35,23.6c11,1.8,27.7,2.9,38.2,3.5c8.3,0.4,16,4.9,20,12.1
				c2.1,3.9,2.8,7.8-1,10.4c-9.7,6.5-51.3,5.2-66.7,7.8c-11.5,1.9-40.6,2.3-54.6,2.4c-5.4,0-10.2-3.1-12.4-8c-3.5-8-6.3-20.9,3.7-33
				C513.8,1699,535.5,1699.8,535.5,1699.8z"/>
			<path class="st35" d="M542.9,1712.9l14.9-236.8c0,0,18.2-151.4,6.4-213.6c-5.4-28.4-21.7-95.6-21.7-95.6s-79.8,4.6-83.8,11.4
				c-4.1,6.8-22.3,35,0,132.1c18.6,81.1,28.4,135,31.1,150.7c0.5,3.1,0.5,6.2-0.1,9.2c-2.8,14.2-13.6,67.4-11.4,89.9
				c5.9,60.2,20.8,161.1,20.8,161.1l0.4,0.1C514.5,1725.8,530.7,1722.6,542.9,1712.9L542.9,1712.9z"/>
			<path class="st32" d="M546.9,1302.1c5.9,91.6-10.2,204.1-11.6,268.2c-1.1,49.5,2.4,116.9,4.1,145.2c1.2-0.8,2.4-1.7,3.6-2.6
				l14.9-236.8c0,0,18.2-151.4,6.4-213.6c-5.4-28.4-21.7-95.6-21.7-95.6s-8.1,0.5-19.2,1.3l-12.7,14.8
				C510.6,1183,541,1210.4,546.9,1302.1z"/>
		</g>
		<g>
			<linearGradient id="SVGID_13_" gradientUnits="userSpaceOnUse" x1="454.0662" y1="1222.2041" x2="454.0662" y2="900.743">
				<stop  offset="0" style="stop-color:#FF5F18"/>
				<stop  offset="0.1538" style="stop-color:#FF701D"/>
				<stop  offset="0.5072" style="stop-color:#FF9028"/>
				<stop  offset="0.8019" style="stop-color:#FFA52F"/>
				<stop  offset="1" style="stop-color:#FFAC31"/>
			</linearGradient>
			<path class="st51" d="M553.4,946.9c0-5.3-2.7-10.3-7.1-13.2c-16.2-10.5-57.7-34.3-99.5-32.9c-38.6,1.3-66.2,10.1-78.6,15
				c-4.8,1.9-8.4,5.9-9.6,10.9c-2.6,10.7-6.4,31.3-4,55.5c3.5,35.4,19.1,99.2,20.9,111.8c1.8,12.6,5.2,77.1-3.1,107.7
				c-8.2,30.6,177.2,20.1,181.4,11.7c4.1-8.4-13.6-50.6-5.7-95.4C552.8,1091,553.3,978.5,553.4,946.9z"/>
			<path class="st52" d="M553.7,1213.4c4.1-8.4-13.6-50.6-5.7-95.4c5.6-31.5,5.4-179.4,5.4-179.4s-23.8-17.7-55.6-28.9
				c-8.5,9.4-17.8,30-8.6,73.2c14.9,70.1,29.7,117,37.8,157.5c7.6,38.2,25.2,63.8-21.8,72.8c-44.8,8.5-108,9-132.9-11.2
				C365.4,1232.3,549.6,1221.8,553.7,1213.4z"/>
		</g>
		<g>
			<path class="st45" d="M523.5,927.1c11.4-5.4,36.9,5.8,45.8,42.5c18.5,76.9,6.7,111.6,10.4,122.4s12.1,58.3,11.5,89
				c-0.4,18.5-0.3,33.2-0.2,42c10-1.2,12,47.9,9.7,54c-1.7,4.8-12.9,15.9-18,20.7c-1,0.9-2.6,0.4-2.8-1c-1-9-5.1-35.6-9.6-44
				c-2.8-5.1-4.6-4.7-6.7-4.8c-1.5-0.1-2.5-1.7-1.9-3.2c0,0,1.3-16.2,8.8-18.4c-6.8-16-18.3-52.1-23.8-68.8
				c-7.2-22.2-9.8-51.1-9.8-51.1s-12.3-36.6-25.6-96.6S512.1,932.5,523.5,927.1z"/>
			<path class="st46" d="M579,1289.9c0.4,2.7,0.7,5.1,0.9,6.8c0.1,1.4,1.8,1.9,2.8,1c5-4.8,16.2-16,18-20.7c2.3-6.2,0.3-55.3-9.7-54
				c-0.1-8.8-0.2-23.5,0.2-42c0.6-30.6-7.8-78.2-11.5-89s8.1-45.4-10.4-122.4c-8.4-34.9-31.8-46.7-43.9-43.2c5.1,2.5,9.9,7.7,14,17
				c17.6,39.8,27,115.5,26,149.1c-1.1,33.6,18.9,139,18.9,139s17.2,21.7,10.2,39.1C590,1281.7,583.3,1287.3,579,1289.9z"/>
			<path class="st41" d="M518.2,919c54.8-7.9,61.4,108.6,61.4,108.6l0,0c-15.1,12-34,18-53.2,16.9l-10.5-0.6c0,0-5.1-14.8-9.5-34
				C492.9,949.9,505.7,920.8,518.2,919z"/>
		</g>
	</g>
</g>
</svg>
